<?xml version="1.0" encoding="UTF-8"?>
<!DOCTYPE svg PUBLIC "-//W3C//DTD SVG 1.1//EN"
    "http://www.w3.org/Graphics/SVG/1.1/DTD/svg11.dtd"><svg font-size="1" viewBox="0.0 0.0 400.0 400.0" stroke="rgb(0,0,0)" xmlns="http://www.w3.org/2000/svg" width="400.0000" stroke-opacity="1" height="400.0000" version="1.1" xmlns:xlink="http://www.w3.org/1999/xlink"><defs></defs><g stroke-linejoin="miter" fill-opacity="0.0" fill="rgb(0,0,0)" stroke="rgb(0,0,0)" stroke-linecap="butt" stroke-miterlimit="10.0" stroke-opacity="1.0" stroke-width="1.6"><path d="M 400.0000,200.0000 c 0.0000,-2.1658 -1.7557,-3.9216 -3.9216 -3.9216c -2.1658,-0.0000 -3.9216,1.7557 -3.9216 3.9216c -0.0000,2.1658 1.7557,3.9216 3.9216 3.9216c 2.1658,0.0000 3.9216,-1.7557 3.9216 -3.9216Z"/></g><g stroke-linejoin="miter" fill-opacity="0.0" fill="rgb(0,0,0)" stroke="rgb(0,0,0)" stroke-linecap="butt" stroke-miterlimit="10.0" stroke-opacity="1.0" stroke-width="1.6"><path d="M 399.6131,187.6881 c 0.0000,-2.1658 -1.7557,-3.9216 -3.9216 -3.9216c -2.1658,-0.0000 -3.9216,1.7557 -3.9216 3.9216c -0.0000,2.1658 1.7557,3.9216 3.9216 3.9216c 2.1658,0.0000 3.9216,-1.7557 3.9216 -3.9216Z"/></g><g stroke-linejoin="miter" fill-opacity="0.0" fill="rgb(0,0,0)" stroke="rgb(0,0,0)" stroke-linecap="butt" stroke-miterlimit="10.0" stroke-opacity="1.0" stroke-width="1.6"><path d="M 398.4539,175.4249 c 0.0000,-2.1658 -1.7557,-3.9216 -3.9216 -3.9216c -2.1658,-0.0000 -3.9216,1.7557 -3.9216 3.9216c -0.0000,2.1658 1.7557,3.9216 3.9216 3.9216c 2.1658,0.0000 3.9216,-1.7557 3.9216 -3.9216Z"/></g><g stroke-linejoin="miter" fill-opacity="0.0" fill="rgb(0,0,0)" stroke="rgb(0,0,0)" stroke-linecap="butt" stroke-miterlimit="10.0" stroke-opacity="1.0" stroke-width="1.6"><path d="M 396.5269,163.2586 c 0.0000,-2.1658 -1.7557,-3.9216 -3.9216 -3.9216c -2.1658,-0.0000 -3.9216,1.7557 -3.9216 3.9216c -0.0000,2.1658 1.7557,3.9216 3.9216 3.9216c 2.1658,0.0000 3.9216,-1.7557 3.9216 -3.9216Z"/></g><g stroke-linejoin="miter" fill-opacity="0.0" fill="rgb(0,0,0)" stroke="rgb(0,0,0)" stroke-linecap="butt" stroke-miterlimit="10.0" stroke-opacity="1.0" stroke-width="1.6"><path d="M 393.8398,151.2373 c 0.0000,-2.1658 -1.7557,-3.9216 -3.9216 -3.9216c -2.1658,-0.0000 -3.9216,1.7557 -3.9216 3.9216c -0.0000,2.1658 1.7557,3.9216 3.9216 3.9216c 2.1658,0.0000 3.9216,-1.7557 3.9216 -3.9216Z"/></g><g stroke-linejoin="miter" fill-opacity="0.0" fill="rgb(0,0,0)" stroke="rgb(0,0,0)" stroke-linecap="butt" stroke-miterlimit="10.0" stroke-opacity="1.0" stroke-width="1.6"><path d="M 390.4032,139.4084 c 0.0000,-2.1658 -1.7557,-3.9216 -3.9216 -3.9216c -2.1658,-0.0000 -3.9216,1.7557 -3.9216 3.9216c -0.0000,2.1658 1.7557,3.9216 3.9216 3.9216c 2.1658,0.0000 3.9216,-1.7557 3.9216 -3.9216Z"/></g><g stroke-linejoin="miter" fill-opacity="0.0" fill="rgb(0,0,0)" stroke="rgb(0,0,0)" stroke-linecap="butt" stroke-miterlimit="10.0" stroke-opacity="1.0" stroke-width="1.6"><path d="M 386.2307,127.8187 c 0.0000,-2.1658 -1.7557,-3.9216 -3.9216 -3.9216c -2.1658,-0.0000 -3.9216,1.7557 -3.9216 3.9216c -0.0000,2.1658 1.7557,3.9216 3.9216 3.9216c 2.1658,0.0000 3.9216,-1.7557 3.9216 -3.9216Z"/></g><g stroke-linejoin="miter" fill-opacity="0.0" fill="rgb(0,0,0)" stroke="rgb(0,0,0)" stroke-linecap="butt" stroke-miterlimit="10.0" stroke-opacity="1.0" stroke-width="1.6"><path d="M 381.3386,116.5139 c 0.0000,-2.1658 -1.7557,-3.9216 -3.9216 -3.9216c -2.1658,-0.0000 -3.9216,1.7557 -3.9216 3.9216c -0.0000,2.1658 1.7557,3.9216 3.9216 3.9216c 2.1658,0.0000 3.9216,-1.7557 3.9216 -3.9216Z"/></g><g stroke-linejoin="miter" fill-opacity="0.0" fill="rgb(0,0,0)" stroke="rgb(0,0,0)" stroke-linecap="butt" stroke-miterlimit="10.0" stroke-opacity="1.0" stroke-width="1.6"><path d="M 375.7464,105.5385 c 0.0000,-2.1658 -1.7557,-3.9216 -3.9216 -3.9216c -2.1658,-0.0000 -3.9216,1.7557 -3.9216 3.9216c -0.0000,2.1658 1.7557,3.9216 3.9216 3.9216c 2.1658,0.0000 3.9216,-1.7557 3.9216 -3.9216Z"/></g><g stroke-linejoin="miter" fill-opacity="0.0" fill="rgb(0,0,0)" stroke="rgb(0,0,0)" stroke-linecap="butt" stroke-miterlimit="10.0" stroke-opacity="1.0" stroke-width="1.6"><path d="M 369.4761,94.9359 c 0.0000,-2.1658 -1.7557,-3.9216 -3.9216 -3.9216c -2.1658,-0.0000 -3.9216,1.7557 -3.9216 3.9216c -0.0000,2.1658 1.7557,3.9216 3.9216 3.9216c 2.1658,0.0000 3.9216,-1.7557 3.9216 -3.9216Z"/></g><g stroke-linejoin="miter" fill-opacity="0.0" fill="rgb(0,0,0)" stroke="rgb(0,0,0)" stroke-linecap="butt" stroke-miterlimit="10.0" stroke-opacity="1.0" stroke-width="1.6"><path d="M 362.5524,84.7480 c 0.0000,-2.1658 -1.7557,-3.9216 -3.9216 -3.9216c -2.1658,-0.0000 -3.9216,1.7557 -3.9216 3.9216c -0.0000,2.1658 1.7557,3.9216 3.9216 3.9216c 2.1658,0.0000 3.9216,-1.7557 3.9216 -3.9216Z"/></g><g stroke-linejoin="miter" fill-opacity="0.0" fill="rgb(0,0,0)" stroke="rgb(0,0,0)" stroke-linecap="butt" stroke-miterlimit="10.0" stroke-opacity="1.0" stroke-width="1.6"><path d="M 355.0026,75.0149 c 0.0000,-2.1658 -1.7557,-3.9216 -3.9216 -3.9216c -2.1658,-0.0000 -3.9216,1.7557 -3.9216 3.9216c -0.0000,2.1658 1.7557,3.9216 3.9216 3.9216c 2.1658,0.0000 3.9216,-1.7557 3.9216 -3.9216Z"/></g><g stroke-linejoin="miter" fill-opacity="0.0" fill="rgb(0,0,0)" stroke="rgb(0,0,0)" stroke-linecap="butt" stroke-miterlimit="10.0" stroke-opacity="1.0" stroke-width="1.6"><path d="M 346.8566,65.7751 c 0.0000,-2.1658 -1.7557,-3.9216 -3.9216 -3.9216c -2.1658,-0.0000 -3.9216,1.7557 -3.9216 3.9216c -0.0000,2.1658 1.7557,3.9216 3.9216 3.9216c 2.1658,0.0000 3.9216,-1.7557 3.9216 -3.9216Z"/></g><g stroke-linejoin="miter" fill-opacity="0.0" fill="rgb(0,0,0)" stroke="rgb(0,0,0)" stroke-linecap="butt" stroke-miterlimit="10.0" stroke-opacity="1.0" stroke-width="1.6"><path d="M 338.1465,57.0650 c 0.0000,-2.1658 -1.7557,-3.9216 -3.9216 -3.9216c -2.1658,-0.0000 -3.9216,1.7557 -3.9216 3.9216c -0.0000,2.1658 1.7557,3.9216 3.9216 3.9216c 2.1658,0.0000 3.9216,-1.7557 3.9216 -3.9216Z"/></g><g stroke-linejoin="miter" fill-opacity="0.0" fill="rgb(0,0,0)" stroke="rgb(0,0,0)" stroke-linecap="butt" stroke-miterlimit="10.0" stroke-opacity="1.0" stroke-width="1.6"><path d="M 328.9067,48.9190 c 0.0000,-2.1658 -1.7557,-3.9216 -3.9216 -3.9216c -2.1658,-0.0000 -3.9216,1.7557 -3.9216 3.9216c -0.0000,2.1658 1.7557,3.9216 3.9216 3.9216c 2.1658,0.0000 3.9216,-1.7557 3.9216 -3.9216Z"/></g><g stroke-linejoin="miter" fill-opacity="0.0" fill="rgb(0,0,0)" stroke="rgb(0,0,0)" stroke-linecap="butt" stroke-miterlimit="10.0" stroke-opacity="1.0" stroke-width="1.6"><path d="M 319.1736,41.3692 c 0.0000,-2.1658 -1.7557,-3.9216 -3.9216 -3.9216c -2.1658,-0.0000 -3.9216,1.7557 -3.9216 3.9216c -0.0000,2.1658 1.7557,3.9216 3.9216 3.9216c 2.1658,0.0000 3.9216,-1.7557 3.9216 -3.9216Z"/></g><g stroke-linejoin="miter" fill-opacity="0.0" fill="rgb(0,0,0)" stroke="rgb(0,0,0)" stroke-linecap="butt" stroke-miterlimit="10.0" stroke-opacity="1.0" stroke-width="1.6"><path d="M 308.9856,34.4455 c 0.0000,-2.1658 -1.7557,-3.9216 -3.9216 -3.9216c -2.1658,-0.0000 -3.9216,1.7557 -3.9216 3.9216c -0.0000,2.1658 1.7557,3.9216 3.9216 3.9216c 2.1658,0.0000 3.9216,-1.7557 3.9216 -3.9216Z"/></g><g stroke-linejoin="miter" fill-opacity="0.0" fill="rgb(0,0,0)" stroke="rgb(0,0,0)" stroke-linecap="butt" stroke-miterlimit="10.0" stroke-opacity="1.0" stroke-width="1.6"><path d="M 298.3831,28.1752 c 0.0000,-2.1658 -1.7557,-3.9216 -3.9216 -3.9216c -2.1658,-0.0000 -3.9216,1.7557 -3.9216 3.9216c -0.0000,2.1658 1.7557,3.9216 3.9216 3.9216c 2.1658,0.0000 3.9216,-1.7557 3.9216 -3.9216Z"/></g><g stroke-linejoin="miter" fill-opacity="0.0" fill="rgb(0,0,0)" stroke="rgb(0,0,0)" stroke-linecap="butt" stroke-miterlimit="10.0" stroke-opacity="1.0" stroke-width="1.6"><path d="M 287.4077,22.5829 c 0.0000,-2.1658 -1.7557,-3.9216 -3.9216 -3.9216c -2.1658,-0.0000 -3.9216,1.7557 -3.9216 3.9216c -0.0000,2.1658 1.7557,3.9216 3.9216 3.9216c 2.1658,0.0000 3.9216,-1.7557 3.9216 -3.9216Z"/></g><g stroke-linejoin="miter" fill-opacity="0.0" fill="rgb(0,0,0)" stroke="rgb(0,0,0)" stroke-linecap="butt" stroke-miterlimit="10.0" stroke-opacity="1.0" stroke-width="1.6"><path d="M 276.1029,17.6909 c 0.0000,-2.1658 -1.7557,-3.9216 -3.9216 -3.9216c -2.1658,-0.0000 -3.9216,1.7557 -3.9216 3.9216c -0.0000,2.1658 1.7557,3.9216 3.9216 3.9216c 2.1658,0.0000 3.9216,-1.7557 3.9216 -3.9216Z"/></g><g stroke-linejoin="miter" fill-opacity="0.0" fill="rgb(0,0,0)" stroke="rgb(0,0,0)" stroke-linecap="butt" stroke-miterlimit="10.0" stroke-opacity="1.0" stroke-width="1.6"><path d="M 264.5131,13.5183 c 0.0000,-2.1658 -1.7557,-3.9216 -3.9216 -3.9216c -2.1658,-0.0000 -3.9216,1.7557 -3.9216 3.9216c -0.0000,2.1658 1.7557,3.9216 3.9216 3.9216c 2.1658,0.0000 3.9216,-1.7557 3.9216 -3.9216Z"/></g><g stroke-linejoin="miter" fill-opacity="0.0" fill="rgb(0,0,0)" stroke="rgb(0,0,0)" stroke-linecap="butt" stroke-miterlimit="10.0" stroke-opacity="1.0" stroke-width="1.6"><path d="M 252.6843,10.0817 c 0.0000,-2.1658 -1.7557,-3.9216 -3.9216 -3.9216c -2.1658,-0.0000 -3.9216,1.7557 -3.9216 3.9216c -0.0000,2.1658 1.7557,3.9216 3.9216 3.9216c 2.1658,0.0000 3.9216,-1.7557 3.9216 -3.9216Z"/></g><g stroke-linejoin="miter" fill-opacity="0.0" fill="rgb(0,0,0)" stroke="rgb(0,0,0)" stroke-linecap="butt" stroke-miterlimit="10.0" stroke-opacity="1.0" stroke-width="1.6"><path d="M 240.6630,7.3947 c 0.0000,-2.1658 -1.7557,-3.9216 -3.9216 -3.9216c -2.1658,-0.0000 -3.9216,1.7557 -3.9216 3.9216c -0.0000,2.1658 1.7557,3.9216 3.9216 3.9216c 2.1658,0.0000 3.9216,-1.7557 3.9216 -3.9216Z"/></g><g stroke-linejoin="miter" fill-opacity="0.0" fill="rgb(0,0,0)" stroke="rgb(0,0,0)" stroke-linecap="butt" stroke-miterlimit="10.0" stroke-opacity="1.0" stroke-width="1.6"><path d="M 228.4967,5.4677 c 0.0000,-2.1658 -1.7557,-3.9216 -3.9216 -3.9216c -2.1658,-0.0000 -3.9216,1.7557 -3.9216 3.9216c -0.0000,2.1658 1.7557,3.9216 3.9216 3.9216c 2.1658,0.0000 3.9216,-1.7557 3.9216 -3.9216Z"/></g><g stroke-linejoin="miter" fill-opacity="0.0" fill="rgb(0,0,0)" stroke="rgb(0,0,0)" stroke-linecap="butt" stroke-miterlimit="10.0" stroke-opacity="1.0" stroke-width="1.6"><path d="M 216.2334,4.3085 c 0.0000,-2.1658 -1.7557,-3.9216 -3.9216 -3.9216c -2.1658,-0.0000 -3.9216,1.7557 -3.9216 3.9216c -0.0000,2.1658 1.7557,3.9216 3.9216 3.9216c 2.1658,0.0000 3.9216,-1.7557 3.9216 -3.9216Z"/></g><g stroke-linejoin="miter" fill-opacity="0.0" fill="rgb(0,0,0)" stroke="rgb(0,0,0)" stroke-linecap="butt" stroke-miterlimit="10.0" stroke-opacity="1.0" stroke-width="1.6"><path d="M 203.9216,3.9216 c 0.0000,-2.1658 -1.7557,-3.9216 -3.9216 -3.9216c -2.1658,-0.0000 -3.9216,1.7557 -3.9216 3.9216c -0.0000,2.1658 1.7557,3.9216 3.9216 3.9216c 2.1658,0.0000 3.9216,-1.7557 3.9216 -3.9216Z"/></g><g stroke-linejoin="miter" fill-opacity="0.0" fill="rgb(0,0,0)" stroke="rgb(0,0,0)" stroke-linecap="butt" stroke-miterlimit="10.0" stroke-opacity="1.0" stroke-width="1.6"><path d="M 191.6097,4.3085 c 0.0000,-2.1658 -1.7557,-3.9216 -3.9216 -3.9216c -2.1658,-0.0000 -3.9216,1.7557 -3.9216 3.9216c -0.0000,2.1658 1.7557,3.9216 3.9216 3.9216c 2.1658,0.0000 3.9216,-1.7557 3.9216 -3.9216Z"/></g><g stroke-linejoin="miter" fill-opacity="0.0" fill="rgb(0,0,0)" stroke="rgb(0,0,0)" stroke-linecap="butt" stroke-miterlimit="10.0" stroke-opacity="1.0" stroke-width="1.6"><path d="M 179.3464,5.4677 c 0.0000,-2.1658 -1.7557,-3.9216 -3.9216 -3.9216c -2.1658,-0.0000 -3.9216,1.7557 -3.9216 3.9216c -0.0000,2.1658 1.7557,3.9216 3.9216 3.9216c 2.1658,0.0000 3.9216,-1.7557 3.9216 -3.9216Z"/></g><g stroke-linejoin="miter" fill-opacity="0.0" fill="rgb(0,0,0)" stroke="rgb(0,0,0)" stroke-linecap="butt" stroke-miterlimit="10.0" stroke-opacity="1.0" stroke-width="1.6"><path d="M 167.1801,7.3947 c 0.0000,-2.1658 -1.7557,-3.9216 -3.9216 -3.9216c -2.1658,-0.0000 -3.9216,1.7557 -3.9216 3.9216c -0.0000,2.1658 1.7557,3.9216 3.9216 3.9216c 2.1658,0.0000 3.9216,-1.7557 3.9216 -3.9216Z"/></g><g stroke-linejoin="miter" fill-opacity="0.0" fill="rgb(0,0,0)" stroke="rgb(0,0,0)" stroke-linecap="butt" stroke-miterlimit="10.0" stroke-opacity="1.0" stroke-width="1.6"><path d="M 155.1588,10.0817 c 0.0000,-2.1658 -1.7557,-3.9216 -3.9216 -3.9216c -2.1658,-0.0000 -3.9216,1.7557 -3.9216 3.9216c -0.0000,2.1658 1.7557,3.9216 3.9216 3.9216c 2.1658,0.0000 3.9216,-1.7557 3.9216 -3.9216Z"/></g><g stroke-linejoin="miter" fill-opacity="0.0" fill="rgb(0,0,0)" stroke="rgb(0,0,0)" stroke-linecap="butt" stroke-miterlimit="10.0" stroke-opacity="1.0" stroke-width="1.6"><path d="M 143.3300,13.5183 c 0.0000,-2.1658 -1.7557,-3.9216 -3.9216 -3.9216c -2.1658,-0.0000 -3.9216,1.7557 -3.9216 3.9216c -0.0000,2.1658 1.7557,3.9216 3.9216 3.9216c 2.1658,0.0000 3.9216,-1.7557 3.9216 -3.9216Z"/></g><g stroke-linejoin="miter" fill-opacity="0.0" fill="rgb(0,0,0)" stroke="rgb(0,0,0)" stroke-linecap="butt" stroke-miterlimit="10.0" stroke-opacity="1.0" stroke-width="1.6"><path d="M 131.7403,17.6909 c 0.0000,-2.1658 -1.7557,-3.9216 -3.9216 -3.9216c -2.1658,-0.0000 -3.9216,1.7557 -3.9216 3.9216c -0.0000,2.1658 1.7557,3.9216 3.9216 3.9216c 2.1658,0.0000 3.9216,-1.7557 3.9216 -3.9216Z"/></g><g stroke-linejoin="miter" fill-opacity="0.0" fill="rgb(0,0,0)" stroke="rgb(0,0,0)" stroke-linecap="butt" stroke-miterlimit="10.0" stroke-opacity="1.0" stroke-width="1.6"><path d="M 120.4354,22.5829 c 0.0000,-2.1658 -1.7557,-3.9216 -3.9216 -3.9216c -2.1658,-0.0000 -3.9216,1.7557 -3.9216 3.9216c -0.0000,2.1658 1.7557,3.9216 3.9216 3.9216c 2.1658,0.0000 3.9216,-1.7557 3.9216 -3.9216Z"/></g><g stroke-linejoin="miter" fill-opacity="0.0" fill="rgb(0,0,0)" stroke="rgb(0,0,0)" stroke-linecap="butt" stroke-miterlimit="10.0" stroke-opacity="1.0" stroke-width="1.6"><path d="M 109.4601,28.1752 c 0.0000,-2.1658 -1.7557,-3.9216 -3.9216 -3.9216c -2.1658,-0.0000 -3.9216,1.7557 -3.9216 3.9216c -0.0000,2.1658 1.7557,3.9216 3.9216 3.9216c 2.1658,0.0000 3.9216,-1.7557 3.9216 -3.9216Z"/></g><g stroke-linejoin="miter" fill-opacity="0.0" fill="rgb(0,0,0)" stroke="rgb(0,0,0)" stroke-linecap="butt" stroke-miterlimit="10.0" stroke-opacity="1.0" stroke-width="1.6"><path d="M 98.8575,34.4455 c 0.0000,-2.1658 -1.7557,-3.9216 -3.9216 -3.9216c -2.1658,-0.0000 -3.9216,1.7557 -3.9216 3.9216c -0.0000,2.1658 1.7557,3.9216 3.9216 3.9216c 2.1658,0.0000 3.9216,-1.7557 3.9216 -3.9216Z"/></g><g stroke-linejoin="miter" fill-opacity="0.0" fill="rgb(0,0,0)" stroke="rgb(0,0,0)" stroke-linecap="butt" stroke-miterlimit="10.0" stroke-opacity="1.0" stroke-width="1.6"><path d="M 88.6696,41.3692 c 0.0000,-2.1658 -1.7557,-3.9216 -3.9216 -3.9216c -2.1658,-0.0000 -3.9216,1.7557 -3.9216 3.9216c -0.0000,2.1658 1.7557,3.9216 3.9216 3.9216c 2.1658,0.0000 3.9216,-1.7557 3.9216 -3.9216Z"/></g><g stroke-linejoin="miter" fill-opacity="0.0" fill="rgb(0,0,0)" stroke="rgb(0,0,0)" stroke-linecap="butt" stroke-miterlimit="10.0" stroke-opacity="1.0" stroke-width="1.6"><path d="M 78.9365,48.9190 c 0.0000,-2.1658 -1.7557,-3.9216 -3.9216 -3.9216c -2.1658,-0.0000 -3.9216,1.7557 -3.9216 3.9216c -0.0000,2.1658 1.7557,3.9216 3.9216 3.9216c 2.1658,0.0000 3.9216,-1.7557 3.9216 -3.9216Z"/></g><g stroke-linejoin="miter" fill-opacity="0.0" fill="rgb(0,0,0)" stroke="rgb(0,0,0)" stroke-linecap="butt" stroke-miterlimit="10.0" stroke-opacity="1.0" stroke-width="1.6"><path d="M 69.6966,57.0650 c 0.0000,-2.1658 -1.7557,-3.9216 -3.9216 -3.9216c -2.1658,-0.0000 -3.9216,1.7557 -3.9216 3.9216c -0.0000,2.1658 1.7557,3.9216 3.9216 3.9216c 2.1658,0.0000 3.9216,-1.7557 3.9216 -3.9216Z"/></g><g stroke-linejoin="miter" fill-opacity="0.0" fill="rgb(0,0,0)" stroke="rgb(0,0,0)" stroke-linecap="butt" stroke-miterlimit="10.0" stroke-opacity="1.0" stroke-width="1.6"><path d="M 60.9865,65.7751 c 0.0000,-2.1658 -1.7557,-3.9216 -3.9216 -3.9216c -2.1658,-0.0000 -3.9216,1.7557 -3.9216 3.9216c -0.0000,2.1658 1.7557,3.9216 3.9216 3.9216c 2.1658,0.0000 3.9216,-1.7557 3.9216 -3.9216Z"/></g><g stroke-linejoin="miter" fill-opacity="0.0" fill="rgb(0,0,0)" stroke="rgb(0,0,0)" stroke-linecap="butt" stroke-miterlimit="10.0" stroke-opacity="1.0" stroke-width="1.6"><path d="M 52.8405,75.0149 c 0.0000,-2.1658 -1.7557,-3.9216 -3.9216 -3.9216c -2.1658,-0.0000 -3.9216,1.7557 -3.9216 3.9216c -0.0000,2.1658 1.7557,3.9216 3.9216 3.9216c 2.1658,0.0000 3.9216,-1.7557 3.9216 -3.9216Z"/></g><g stroke-linejoin="miter" fill-opacity="0.0" fill="rgb(0,0,0)" stroke="rgb(0,0,0)" stroke-linecap="butt" stroke-miterlimit="10.0" stroke-opacity="1.0" stroke-width="1.6"><path d="M 45.2908,84.7480 c 0.0000,-2.1658 -1.7557,-3.9216 -3.9216 -3.9216c -2.1658,-0.0000 -3.9216,1.7557 -3.9216 3.9216c -0.0000,2.1658 1.7557,3.9216 3.9216 3.9216c 2.1658,0.0000 3.9216,-1.7557 3.9216 -3.9216Z"/></g><g stroke-linejoin="miter" fill-opacity="0.0" fill="rgb(0,0,0)" stroke="rgb(0,0,0)" stroke-linecap="butt" stroke-miterlimit="10.0" stroke-opacity="1.0" stroke-width="1.6"><path d="M 38.3671,94.9359 c 0.0000,-2.1658 -1.7557,-3.9216 -3.9216 -3.9216c -2.1658,-0.0000 -3.9216,1.7557 -3.9216 3.9216c -0.0000,2.1658 1.7557,3.9216 3.9216 3.9216c 2.1658,0.0000 3.9216,-1.7557 3.9216 -3.9216Z"/></g><g stroke-linejoin="miter" fill-opacity="0.0" fill="rgb(0,0,0)" stroke="rgb(0,0,0)" stroke-linecap="butt" stroke-miterlimit="10.0" stroke-opacity="1.0" stroke-width="1.6"><path d="M 32.0967,105.5385 c 0.0000,-2.1658 -1.7557,-3.9216 -3.9216 -3.9216c -2.1658,-0.0000 -3.9216,1.7557 -3.9216 3.9216c -0.0000,2.1658 1.7557,3.9216 3.9216 3.9216c 2.1658,0.0000 3.9216,-1.7557 3.9216 -3.9216Z"/></g><g stroke-linejoin="miter" fill-opacity="0.0" fill="rgb(0,0,0)" stroke="rgb(0,0,0)" stroke-linecap="butt" stroke-miterlimit="10.0" stroke-opacity="1.0" stroke-width="1.6"><path d="M 26.5045,116.5139 c 0.0000,-2.1658 -1.7557,-3.9216 -3.9216 -3.9216c -2.1658,-0.0000 -3.9216,1.7557 -3.9216 3.9216c -0.0000,2.1658 1.7557,3.9216 3.9216 3.9216c 2.1658,0.0000 3.9216,-1.7557 3.9216 -3.9216Z"/></g><g stroke-linejoin="miter" fill-opacity="0.0" fill="rgb(0,0,0)" stroke="rgb(0,0,0)" stroke-linecap="butt" stroke-miterlimit="10.0" stroke-opacity="1.0" stroke-width="1.6"><path d="M 21.6125,127.8187 c 0.0000,-2.1658 -1.7557,-3.9216 -3.9216 -3.9216c -2.1658,-0.0000 -3.9216,1.7557 -3.9216 3.9216c -0.0000,2.1658 1.7557,3.9216 3.9216 3.9216c 2.1658,0.0000 3.9216,-1.7557 3.9216 -3.9216Z"/></g><g stroke-linejoin="miter" fill-opacity="0.0" fill="rgb(0,0,0)" stroke="rgb(0,0,0)" stroke-linecap="butt" stroke-miterlimit="10.0" stroke-opacity="1.0" stroke-width="1.6"><path d="M 17.4399,139.4084 c 0.0000,-2.1658 -1.7557,-3.9216 -3.9216 -3.9216c -2.1658,-0.0000 -3.9216,1.7557 -3.9216 3.9216c -0.0000,2.1658 1.7557,3.9216 3.9216 3.9216c 2.1658,0.0000 3.9216,-1.7557 3.9216 -3.9216Z"/></g><g stroke-linejoin="miter" fill-opacity="0.0" fill="rgb(0,0,0)" stroke="rgb(0,0,0)" stroke-linecap="butt" stroke-miterlimit="10.0" stroke-opacity="1.0" stroke-width="1.6"><path d="M 14.0033,151.2373 c 0.0000,-2.1658 -1.7557,-3.9216 -3.9216 -3.9216c -2.1658,-0.0000 -3.9216,1.7557 -3.9216 3.9216c -0.0000,2.1658 1.7557,3.9216 3.9216 3.9216c 2.1658,0.0000 3.9216,-1.7557 3.9216 -3.9216Z"/></g><g stroke-linejoin="miter" fill-opacity="0.0" fill="rgb(0,0,0)" stroke="rgb(0,0,0)" stroke-linecap="butt" stroke-miterlimit="10.0" stroke-opacity="1.0" stroke-width="1.6"><path d="M 11.3162,163.2586 c 0.0000,-2.1658 -1.7557,-3.9216 -3.9216 -3.9216c -2.1658,-0.0000 -3.9216,1.7557 -3.9216 3.9216c -0.0000,2.1658 1.7557,3.9216 3.9216 3.9216c 2.1658,0.0000 3.9216,-1.7557 3.9216 -3.9216Z"/></g><g stroke-linejoin="miter" fill-opacity="0.0" fill="rgb(0,0,0)" stroke="rgb(0,0,0)" stroke-linecap="butt" stroke-miterlimit="10.0" stroke-opacity="1.0" stroke-width="1.6"><path d="M 9.3893,175.4249 c 0.0000,-2.1658 -1.7557,-3.9216 -3.9216 -3.9216c -2.1658,-0.0000 -3.9216,1.7557 -3.9216 3.9216c -0.0000,2.1658 1.7557,3.9216 3.9216 3.9216c 2.1658,0.0000 3.9216,-1.7557 3.9216 -3.9216Z"/></g><g stroke-linejoin="miter" fill-opacity="0.0" fill="rgb(0,0,0)" stroke="rgb(0,0,0)" stroke-linecap="butt" stroke-miterlimit="10.0" stroke-opacity="1.0" stroke-width="1.6"><path d="M 8.2301,187.6881 c 0.0000,-2.1658 -1.7557,-3.9216 -3.9216 -3.9216c -2.1658,-0.0000 -3.9216,1.7557 -3.9216 3.9216c -0.0000,2.1658 1.7557,3.9216 3.9216 3.9216c 2.1658,0.0000 3.9216,-1.7557 3.9216 -3.9216Z"/></g><g stroke-linejoin="miter" fill-opacity="0.0" fill="rgb(0,0,0)" stroke="rgb(0,0,0)" stroke-linecap="butt" stroke-miterlimit="10.0" stroke-opacity="1.0" stroke-width="1.6"><path d="M 7.8431,200.0000 c 0.0000,-2.1658 -1.7557,-3.9216 -3.9216 -3.9216c -2.1658,-0.0000 -3.9216,1.7557 -3.9216 3.9216c -0.0000,2.1658 1.7557,3.9216 3.9216 3.9216c 2.1658,0.0000 3.9216,-1.7557 3.9216 -3.9216Z"/></g><g stroke-linejoin="miter" fill-opacity="0.0" fill="rgb(0,0,0)" stroke="rgb(0,0,0)" stroke-linecap="butt" stroke-miterlimit="10.0" stroke-opacity="1.0" stroke-width="1.6"><path d="M 8.2301,212.3119 c 0.0000,-2.1658 -1.7557,-3.9216 -3.9216 -3.9216c -2.1658,-0.0000 -3.9216,1.7557 -3.9216 3.9216c -0.0000,2.1658 1.7557,3.9216 3.9216 3.9216c 2.1658,0.0000 3.9216,-1.7557 3.9216 -3.9216Z"/></g><g stroke-linejoin="miter" fill-opacity="0.0" fill="rgb(0,0,0)" stroke="rgb(0,0,0)" stroke-linecap="butt" stroke-miterlimit="10.0" stroke-opacity="1.0" stroke-width="1.6"><path d="M 9.3893,224.5751 c 0.0000,-2.1658 -1.7557,-3.9216 -3.9216 -3.9216c -2.1658,-0.0000 -3.9216,1.7557 -3.9216 3.9216c -0.0000,2.1658 1.7557,3.9216 3.9216 3.9216c 2.1658,0.0000 3.9216,-1.7557 3.9216 -3.9216Z"/></g><g stroke-linejoin="miter" fill-opacity="0.0" fill="rgb(0,0,0)" stroke="rgb(0,0,0)" stroke-linecap="butt" stroke-miterlimit="10.0" stroke-opacity="1.0" stroke-width="1.6"><path d="M 11.3162,236.7414 c 0.0000,-2.1658 -1.7557,-3.9216 -3.9216 -3.9216c -2.1658,-0.0000 -3.9216,1.7557 -3.9216 3.9216c -0.0000,2.1658 1.7557,3.9216 3.9216 3.9216c 2.1658,0.0000 3.9216,-1.7557 3.9216 -3.9216Z"/></g><g stroke-linejoin="miter" fill-opacity="0.0" fill="rgb(0,0,0)" stroke="rgb(0,0,0)" stroke-linecap="butt" stroke-miterlimit="10.0" stroke-opacity="1.0" stroke-width="1.6"><path d="M 14.0033,248.7627 c 0.0000,-2.1658 -1.7557,-3.9216 -3.9216 -3.9216c -2.1658,-0.0000 -3.9216,1.7557 -3.9216 3.9216c -0.0000,2.1658 1.7557,3.9216 3.9216 3.9216c 2.1658,0.0000 3.9216,-1.7557 3.9216 -3.9216Z"/></g><g stroke-linejoin="miter" fill-opacity="0.0" fill="rgb(0,0,0)" stroke="rgb(0,0,0)" stroke-linecap="butt" stroke-miterlimit="10.0" stroke-opacity="1.0" stroke-width="1.6"><path d="M 17.4399,260.5916 c 0.0000,-2.1658 -1.7557,-3.9216 -3.9216 -3.9216c -2.1658,-0.0000 -3.9216,1.7557 -3.9216 3.9216c -0.0000,2.1658 1.7557,3.9216 3.9216 3.9216c 2.1658,0.0000 3.9216,-1.7557 3.9216 -3.9216Z"/></g><g stroke-linejoin="miter" fill-opacity="0.0" fill="rgb(0,0,0)" stroke="rgb(0,0,0)" stroke-linecap="butt" stroke-miterlimit="10.0" stroke-opacity="1.0" stroke-width="1.6"><path d="M 21.6125,272.1813 c 0.0000,-2.1658 -1.7557,-3.9216 -3.9216 -3.9216c -2.1658,-0.0000 -3.9216,1.7557 -3.9216 3.9216c -0.0000,2.1658 1.7557,3.9216 3.9216 3.9216c 2.1658,0.0000 3.9216,-1.7557 3.9216 -3.9216Z"/></g><g stroke-linejoin="miter" fill-opacity="0.0" fill="rgb(0,0,0)" stroke="rgb(0,0,0)" stroke-linecap="butt" stroke-miterlimit="10.0" stroke-opacity="1.0" stroke-width="1.6"><path d="M 26.5045,283.4861 c 0.0000,-2.1658 -1.7557,-3.9216 -3.9216 -3.9216c -2.1658,-0.0000 -3.9216,1.7557 -3.9216 3.9216c -0.0000,2.1658 1.7557,3.9216 3.9216 3.9216c 2.1658,0.0000 3.9216,-1.7557 3.9216 -3.9216Z"/></g><g stroke-linejoin="miter" fill-opacity="0.0" fill="rgb(0,0,0)" stroke="rgb(0,0,0)" stroke-linecap="butt" stroke-miterlimit="10.0" stroke-opacity="1.0" stroke-width="1.6"><path d="M 32.0967,294.4615 c 0.0000,-2.1658 -1.7557,-3.9216 -3.9216 -3.9216c -2.1658,-0.0000 -3.9216,1.7557 -3.9216 3.9216c -0.0000,2.1658 1.7557,3.9216 3.9216 3.9216c 2.1658,0.0000 3.9216,-1.7557 3.9216 -3.9216Z"/></g><g stroke-linejoin="miter" fill-opacity="0.0" fill="rgb(0,0,0)" stroke="rgb(0,0,0)" stroke-linecap="butt" stroke-miterlimit="10.0" stroke-opacity="1.0" stroke-width="1.6"><path d="M 38.3671,305.0641 c 0.0000,-2.1658 -1.7557,-3.9216 -3.9216 -3.9216c -2.1658,-0.0000 -3.9216,1.7557 -3.9216 3.9216c -0.0000,2.1658 1.7557,3.9216 3.9216 3.9216c 2.1658,0.0000 3.9216,-1.7557 3.9216 -3.9216Z"/></g><g stroke-linejoin="miter" fill-opacity="0.0" fill="rgb(0,0,0)" stroke="rgb(0,0,0)" stroke-linecap="butt" stroke-miterlimit="10.0" stroke-opacity="1.0" stroke-width="1.6"><path d="M 45.2908,315.2520 c 0.0000,-2.1658 -1.7557,-3.9216 -3.9216 -3.9216c -2.1658,-0.0000 -3.9216,1.7557 -3.9216 3.9216c -0.0000,2.1658 1.7557,3.9216 3.9216 3.9216c 2.1658,0.0000 3.9216,-1.7557 3.9216 -3.9216Z"/></g><g stroke-linejoin="miter" fill-opacity="0.0" fill="rgb(0,0,0)" stroke="rgb(0,0,0)" stroke-linecap="butt" stroke-miterlimit="10.0" stroke-opacity="1.0" stroke-width="1.6"><path d="M 52.8405,324.9851 c 0.0000,-2.1658 -1.7557,-3.9216 -3.9216 -3.9216c -2.1658,-0.0000 -3.9216,1.7557 -3.9216 3.9216c -0.0000,2.1658 1.7557,3.9216 3.9216 3.9216c 2.1658,0.0000 3.9216,-1.7557 3.9216 -3.9216Z"/></g><g stroke-linejoin="miter" fill-opacity="0.0" fill="rgb(0,0,0)" stroke="rgb(0,0,0)" stroke-linecap="butt" stroke-miterlimit="10.0" stroke-opacity="1.0" stroke-width="1.6"><path d="M 60.9865,334.2249 c 0.0000,-2.1658 -1.7557,-3.9216 -3.9216 -3.9216c -2.1658,-0.0000 -3.9216,1.7557 -3.9216 3.9216c -0.0000,2.1658 1.7557,3.9216 3.9216 3.9216c 2.1658,0.0000 3.9216,-1.7557 3.9216 -3.9216Z"/></g><g stroke-linejoin="miter" fill-opacity="0.0" fill="rgb(0,0,0)" stroke="rgb(0,0,0)" stroke-linecap="butt" stroke-miterlimit="10.0" stroke-opacity="1.0" stroke-width="1.6"><path d="M 69.6966,342.9350 c 0.0000,-2.1658 -1.7557,-3.9216 -3.9216 -3.9216c -2.1658,-0.0000 -3.9216,1.7557 -3.9216 3.9216c -0.0000,2.1658 1.7557,3.9216 3.9216 3.9216c 2.1658,0.0000 3.9216,-1.7557 3.9216 -3.9216Z"/></g><g stroke-linejoin="miter" fill-opacity="0.0" fill="rgb(0,0,0)" stroke="rgb(0,0,0)" stroke-linecap="butt" stroke-miterlimit="10.0" stroke-opacity="1.0" stroke-width="1.6"><path d="M 78.9365,351.0810 c 0.0000,-2.1658 -1.7557,-3.9216 -3.9216 -3.9216c -2.1658,-0.0000 -3.9216,1.7557 -3.9216 3.9216c -0.0000,2.1658 1.7557,3.9216 3.9216 3.9216c 2.1658,0.0000 3.9216,-1.7557 3.9216 -3.9216Z"/></g><g stroke-linejoin="miter" fill-opacity="0.0" fill="rgb(0,0,0)" stroke="rgb(0,0,0)" stroke-linecap="butt" stroke-miterlimit="10.0" stroke-opacity="1.0" stroke-width="1.6"><path d="M 88.6696,358.6308 c 0.0000,-2.1658 -1.7557,-3.9216 -3.9216 -3.9216c -2.1658,-0.0000 -3.9216,1.7557 -3.9216 3.9216c -0.0000,2.1658 1.7557,3.9216 3.9216 3.9216c 2.1658,0.0000 3.9216,-1.7557 3.9216 -3.9216Z"/></g><g stroke-linejoin="miter" fill-opacity="0.0" fill="rgb(0,0,0)" stroke="rgb(0,0,0)" stroke-linecap="butt" stroke-miterlimit="10.0" stroke-opacity="1.0" stroke-width="1.6"><path d="M 98.8575,365.5545 c 0.0000,-2.1658 -1.7557,-3.9216 -3.9216 -3.9216c -2.1658,-0.0000 -3.9216,1.7557 -3.9216 3.9216c -0.0000,2.1658 1.7557,3.9216 3.9216 3.9216c 2.1658,0.0000 3.9216,-1.7557 3.9216 -3.9216Z"/></g><g stroke-linejoin="miter" fill-opacity="0.0" fill="rgb(0,0,0)" stroke="rgb(0,0,0)" stroke-linecap="butt" stroke-miterlimit="10.0" stroke-opacity="1.0" stroke-width="1.6"><path d="M 109.4601,371.8248 c 0.0000,-2.1658 -1.7557,-3.9216 -3.9216 -3.9216c -2.1658,-0.0000 -3.9216,1.7557 -3.9216 3.9216c -0.0000,2.1658 1.7557,3.9216 3.9216 3.9216c 2.1658,0.0000 3.9216,-1.7557 3.9216 -3.9216Z"/></g><g stroke-linejoin="miter" fill-opacity="0.0" fill="rgb(0,0,0)" stroke="rgb(0,0,0)" stroke-linecap="butt" stroke-miterlimit="10.0" stroke-opacity="1.0" stroke-width="1.6"><path d="M 120.4354,377.4171 c 0.0000,-2.1658 -1.7557,-3.9216 -3.9216 -3.9216c -2.1658,-0.0000 -3.9216,1.7557 -3.9216 3.9216c -0.0000,2.1658 1.7557,3.9216 3.9216 3.9216c 2.1658,0.0000 3.9216,-1.7557 3.9216 -3.9216Z"/></g><g stroke-linejoin="miter" fill-opacity="0.0" fill="rgb(0,0,0)" stroke="rgb(0,0,0)" stroke-linecap="butt" stroke-miterlimit="10.0" stroke-opacity="1.0" stroke-width="1.6"><path d="M 131.7403,382.3091 c 0.0000,-2.1658 -1.7557,-3.9216 -3.9216 -3.9216c -2.1658,-0.0000 -3.9216,1.7557 -3.9216 3.9216c -0.0000,2.1658 1.7557,3.9216 3.9216 3.9216c 2.1658,0.0000 3.9216,-1.7557 3.9216 -3.9216Z"/></g><g stroke-linejoin="miter" fill-opacity="0.0" fill="rgb(0,0,0)" stroke="rgb(0,0,0)" stroke-linecap="butt" stroke-miterlimit="10.0" stroke-opacity="1.0" stroke-width="1.6"><path d="M 143.3300,386.4817 c 0.0000,-2.1658 -1.7557,-3.9216 -3.9216 -3.9216c -2.1658,-0.0000 -3.9216,1.7557 -3.9216 3.9216c -0.0000,2.1658 1.7557,3.9216 3.9216 3.9216c 2.1658,0.0000 3.9216,-1.7557 3.9216 -3.9216Z"/></g><g stroke-linejoin="miter" fill-opacity="0.0" fill="rgb(0,0,0)" stroke="rgb(0,0,0)" stroke-linecap="butt" stroke-miterlimit="10.0" stroke-opacity="1.0" stroke-width="1.6"><path d="M 155.1588,389.9183 c 0.0000,-2.1658 -1.7557,-3.9216 -3.9216 -3.9216c -2.1658,-0.0000 -3.9216,1.7557 -3.9216 3.9216c -0.0000,2.1658 1.7557,3.9216 3.9216 3.9216c 2.1658,0.0000 3.9216,-1.7557 3.9216 -3.9216Z"/></g><g stroke-linejoin="miter" fill-opacity="0.0" fill="rgb(0,0,0)" stroke="rgb(0,0,0)" stroke-linecap="butt" stroke-miterlimit="10.0" stroke-opacity="1.0" stroke-width="1.6"><path d="M 167.1801,392.6053 c 0.0000,-2.1658 -1.7557,-3.9216 -3.9216 -3.9216c -2.1658,-0.0000 -3.9216,1.7557 -3.9216 3.9216c -0.0000,2.1658 1.7557,3.9216 3.9216 3.9216c 2.1658,0.0000 3.9216,-1.7557 3.9216 -3.9216Z"/></g><g stroke-linejoin="miter" fill-opacity="0.0" fill="rgb(0,0,0)" stroke="rgb(0,0,0)" stroke-linecap="butt" stroke-miterlimit="10.0" stroke-opacity="1.0" stroke-width="1.6"><path d="M 179.3464,394.5323 c 0.0000,-2.1658 -1.7557,-3.9216 -3.9216 -3.9216c -2.1658,-0.0000 -3.9216,1.7557 -3.9216 3.9216c -0.0000,2.1658 1.7557,3.9216 3.9216 3.9216c 2.1658,0.0000 3.9216,-1.7557 3.9216 -3.9216Z"/></g><g stroke-linejoin="miter" fill-opacity="0.0" fill="rgb(0,0,0)" stroke="rgb(0,0,0)" stroke-linecap="butt" stroke-miterlimit="10.0" stroke-opacity="1.0" stroke-width="1.6"><path d="M 191.6097,395.6915 c 0.0000,-2.1658 -1.7557,-3.9216 -3.9216 -3.9216c -2.1658,-0.0000 -3.9216,1.7557 -3.9216 3.9216c -0.0000,2.1658 1.7557,3.9216 3.9216 3.9216c 2.1658,0.0000 3.9216,-1.7557 3.9216 -3.9216Z"/></g><g stroke-linejoin="miter" fill-opacity="0.0" fill="rgb(0,0,0)" stroke="rgb(0,0,0)" stroke-linecap="butt" stroke-miterlimit="10.0" stroke-opacity="1.0" stroke-width="1.6"><path d="M 203.9216,396.0784 c 0.0000,-2.1658 -1.7557,-3.9216 -3.9216 -3.9216c -2.1658,-0.0000 -3.9216,1.7557 -3.9216 3.9216c -0.0000,2.1658 1.7557,3.9216 3.9216 3.9216c 2.1658,0.0000 3.9216,-1.7557 3.9216 -3.9216Z"/></g><g stroke-linejoin="miter" fill-opacity="0.0" fill="rgb(0,0,0)" stroke="rgb(0,0,0)" stroke-linecap="butt" stroke-miterlimit="10.0" stroke-opacity="1.0" stroke-width="1.6"><path d="M 216.2334,395.6915 c 0.0000,-2.1658 -1.7557,-3.9216 -3.9216 -3.9216c -2.1658,-0.0000 -3.9216,1.7557 -3.9216 3.9216c -0.0000,2.1658 1.7557,3.9216 3.9216 3.9216c 2.1658,0.0000 3.9216,-1.7557 3.9216 -3.9216Z"/></g><g stroke-linejoin="miter" fill-opacity="0.0" fill="rgb(0,0,0)" stroke="rgb(0,0,0)" stroke-linecap="butt" stroke-miterlimit="10.0" stroke-opacity="1.0" stroke-width="1.6"><path d="M 228.4967,394.5323 c 0.0000,-2.1658 -1.7557,-3.9216 -3.9216 -3.9216c -2.1658,-0.0000 -3.9216,1.7557 -3.9216 3.9216c -0.0000,2.1658 1.7557,3.9216 3.9216 3.9216c 2.1658,0.0000 3.9216,-1.7557 3.9216 -3.9216Z"/></g><g stroke-linejoin="miter" fill-opacity="0.0" fill="rgb(0,0,0)" stroke="rgb(0,0,0)" stroke-linecap="butt" stroke-miterlimit="10.0" stroke-opacity="1.0" stroke-width="1.6"><path d="M 240.6630,392.6053 c 0.0000,-2.1658 -1.7557,-3.9216 -3.9216 -3.9216c -2.1658,-0.0000 -3.9216,1.7557 -3.9216 3.9216c -0.0000,2.1658 1.7557,3.9216 3.9216 3.9216c 2.1658,0.0000 3.9216,-1.7557 3.9216 -3.9216Z"/></g><g stroke-linejoin="miter" fill-opacity="0.0" fill="rgb(0,0,0)" stroke="rgb(0,0,0)" stroke-linecap="butt" stroke-miterlimit="10.0" stroke-opacity="1.0" stroke-width="1.6"><path d="M 252.6843,389.9183 c 0.0000,-2.1658 -1.7557,-3.9216 -3.9216 -3.9216c -2.1658,-0.0000 -3.9216,1.7557 -3.9216 3.9216c -0.0000,2.1658 1.7557,3.9216 3.9216 3.9216c 2.1658,0.0000 3.9216,-1.7557 3.9216 -3.9216Z"/></g><g stroke-linejoin="miter" fill-opacity="0.0" fill="rgb(0,0,0)" stroke="rgb(0,0,0)" stroke-linecap="butt" stroke-miterlimit="10.0" stroke-opacity="1.0" stroke-width="1.6"><path d="M 264.5131,386.4817 c 0.0000,-2.1658 -1.7557,-3.9216 -3.9216 -3.9216c -2.1658,-0.0000 -3.9216,1.7557 -3.9216 3.9216c -0.0000,2.1658 1.7557,3.9216 3.9216 3.9216c 2.1658,0.0000 3.9216,-1.7557 3.9216 -3.9216Z"/></g><g stroke-linejoin="miter" fill-opacity="0.0" fill="rgb(0,0,0)" stroke="rgb(0,0,0)" stroke-linecap="butt" stroke-miterlimit="10.0" stroke-opacity="1.0" stroke-width="1.6"><path d="M 276.1029,382.3091 c 0.0000,-2.1658 -1.7557,-3.9216 -3.9216 -3.9216c -2.1658,-0.0000 -3.9216,1.7557 -3.9216 3.9216c -0.0000,2.1658 1.7557,3.9216 3.9216 3.9216c 2.1658,0.0000 3.9216,-1.7557 3.9216 -3.9216Z"/></g><g stroke-linejoin="miter" fill-opacity="0.0" fill="rgb(0,0,0)" stroke="rgb(0,0,0)" stroke-linecap="butt" stroke-miterlimit="10.0" stroke-opacity="1.0" stroke-width="1.6"><path d="M 287.4077,377.4171 c 0.0000,-2.1658 -1.7557,-3.9216 -3.9216 -3.9216c -2.1658,-0.0000 -3.9216,1.7557 -3.9216 3.9216c -0.0000,2.1658 1.7557,3.9216 3.9216 3.9216c 2.1658,0.0000 3.9216,-1.7557 3.9216 -3.9216Z"/></g><g stroke-linejoin="miter" fill-opacity="0.0" fill="rgb(0,0,0)" stroke="rgb(0,0,0)" stroke-linecap="butt" stroke-miterlimit="10.0" stroke-opacity="1.0" stroke-width="1.6"><path d="M 298.3831,371.8248 c 0.0000,-2.1658 -1.7557,-3.9216 -3.9216 -3.9216c -2.1658,-0.0000 -3.9216,1.7557 -3.9216 3.9216c -0.0000,2.1658 1.7557,3.9216 3.9216 3.9216c 2.1658,0.0000 3.9216,-1.7557 3.9216 -3.9216Z"/></g><g stroke-linejoin="miter" fill-opacity="0.0" fill="rgb(0,0,0)" stroke="rgb(0,0,0)" stroke-linecap="butt" stroke-miterlimit="10.0" stroke-opacity="1.0" stroke-width="1.6"><path d="M 308.9856,365.5545 c 0.0000,-2.1658 -1.7557,-3.9216 -3.9216 -3.9216c -2.1658,-0.0000 -3.9216,1.7557 -3.9216 3.9216c -0.0000,2.1658 1.7557,3.9216 3.9216 3.9216c 2.1658,0.0000 3.9216,-1.7557 3.9216 -3.9216Z"/></g><g stroke-linejoin="miter" fill-opacity="0.0" fill="rgb(0,0,0)" stroke="rgb(0,0,0)" stroke-linecap="butt" stroke-miterlimit="10.0" stroke-opacity="1.0" stroke-width="1.6"><path d="M 319.1736,358.6308 c 0.0000,-2.1658 -1.7557,-3.9216 -3.9216 -3.9216c -2.1658,-0.0000 -3.9216,1.7557 -3.9216 3.9216c -0.0000,2.1658 1.7557,3.9216 3.9216 3.9216c 2.1658,0.0000 3.9216,-1.7557 3.9216 -3.9216Z"/></g><g stroke-linejoin="miter" fill-opacity="0.0" fill="rgb(0,0,0)" stroke="rgb(0,0,0)" stroke-linecap="butt" stroke-miterlimit="10.0" stroke-opacity="1.0" stroke-width="1.6"><path d="M 328.9067,351.0810 c 0.0000,-2.1658 -1.7557,-3.9216 -3.9216 -3.9216c -2.1658,-0.0000 -3.9216,1.7557 -3.9216 3.9216c -0.0000,2.1658 1.7557,3.9216 3.9216 3.9216c 2.1658,0.0000 3.9216,-1.7557 3.9216 -3.9216Z"/></g><g stroke-linejoin="miter" fill-opacity="0.0" fill="rgb(0,0,0)" stroke="rgb(0,0,0)" stroke-linecap="butt" stroke-miterlimit="10.0" stroke-opacity="1.0" stroke-width="1.6"><path d="M 338.1465,342.9350 c 0.0000,-2.1658 -1.7557,-3.9216 -3.9216 -3.9216c -2.1658,-0.0000 -3.9216,1.7557 -3.9216 3.9216c -0.0000,2.1658 1.7557,3.9216 3.9216 3.9216c 2.1658,0.0000 3.9216,-1.7557 3.9216 -3.9216Z"/></g><g stroke-linejoin="miter" fill-opacity="0.0" fill="rgb(0,0,0)" stroke="rgb(0,0,0)" stroke-linecap="butt" stroke-miterlimit="10.0" stroke-opacity="1.0" stroke-width="1.6"><path d="M 346.8566,334.2249 c 0.0000,-2.1658 -1.7557,-3.9216 -3.9216 -3.9216c -2.1658,-0.0000 -3.9216,1.7557 -3.9216 3.9216c -0.0000,2.1658 1.7557,3.9216 3.9216 3.9216c 2.1658,0.0000 3.9216,-1.7557 3.9216 -3.9216Z"/></g><g stroke-linejoin="miter" fill-opacity="0.0" fill="rgb(0,0,0)" stroke="rgb(0,0,0)" stroke-linecap="butt" stroke-miterlimit="10.0" stroke-opacity="1.0" stroke-width="1.6"><path d="M 355.0026,324.9851 c 0.0000,-2.1658 -1.7557,-3.9216 -3.9216 -3.9216c -2.1658,-0.0000 -3.9216,1.7557 -3.9216 3.9216c -0.0000,2.1658 1.7557,3.9216 3.9216 3.9216c 2.1658,0.0000 3.9216,-1.7557 3.9216 -3.9216Z"/></g><g stroke-linejoin="miter" fill-opacity="0.0" fill="rgb(0,0,0)" stroke="rgb(0,0,0)" stroke-linecap="butt" stroke-miterlimit="10.0" stroke-opacity="1.0" stroke-width="1.6"><path d="M 362.5524,315.2520 c 0.0000,-2.1658 -1.7557,-3.9216 -3.9216 -3.9216c -2.1658,-0.0000 -3.9216,1.7557 -3.9216 3.9216c -0.0000,2.1658 1.7557,3.9216 3.9216 3.9216c 2.1658,0.0000 3.9216,-1.7557 3.9216 -3.9216Z"/></g><g stroke-linejoin="miter" fill-opacity="0.0" fill="rgb(0,0,0)" stroke="rgb(0,0,0)" stroke-linecap="butt" stroke-miterlimit="10.0" stroke-opacity="1.0" stroke-width="1.6"><path d="M 369.4761,305.0641 c 0.0000,-2.1658 -1.7557,-3.9216 -3.9216 -3.9216c -2.1658,-0.0000 -3.9216,1.7557 -3.9216 3.9216c -0.0000,2.1658 1.7557,3.9216 3.9216 3.9216c 2.1658,0.0000 3.9216,-1.7557 3.9216 -3.9216Z"/></g><g stroke-linejoin="miter" fill-opacity="0.0" fill="rgb(0,0,0)" stroke="rgb(0,0,0)" stroke-linecap="butt" stroke-miterlimit="10.0" stroke-opacity="1.0" stroke-width="1.6"><path d="M 375.7464,294.4615 c 0.0000,-2.1658 -1.7557,-3.9216 -3.9216 -3.9216c -2.1658,-0.0000 -3.9216,1.7557 -3.9216 3.9216c -0.0000,2.1658 1.7557,3.9216 3.9216 3.9216c 2.1658,0.0000 3.9216,-1.7557 3.9216 -3.9216Z"/></g><g stroke-linejoin="miter" fill-opacity="0.0" fill="rgb(0,0,0)" stroke="rgb(0,0,0)" stroke-linecap="butt" stroke-miterlimit="10.0" stroke-opacity="1.0" stroke-width="1.6"><path d="M 381.3386,283.4861 c 0.0000,-2.1658 -1.7557,-3.9216 -3.9216 -3.9216c -2.1658,-0.0000 -3.9216,1.7557 -3.9216 3.9216c -0.0000,2.1658 1.7557,3.9216 3.9216 3.9216c 2.1658,0.0000 3.9216,-1.7557 3.9216 -3.9216Z"/></g><g stroke-linejoin="miter" fill-opacity="0.0" fill="rgb(0,0,0)" stroke="rgb(0,0,0)" stroke-linecap="butt" stroke-miterlimit="10.0" stroke-opacity="1.0" stroke-width="1.6"><path d="M 386.2307,272.1813 c 0.0000,-2.1658 -1.7557,-3.9216 -3.9216 -3.9216c -2.1658,-0.0000 -3.9216,1.7557 -3.9216 3.9216c -0.0000,2.1658 1.7557,3.9216 3.9216 3.9216c 2.1658,0.0000 3.9216,-1.7557 3.9216 -3.9216Z"/></g><g stroke-linejoin="miter" fill-opacity="0.0" fill="rgb(0,0,0)" stroke="rgb(0,0,0)" stroke-linecap="butt" stroke-miterlimit="10.0" stroke-opacity="1.0" stroke-width="1.6"><path d="M 390.4032,260.5916 c 0.0000,-2.1658 -1.7557,-3.9216 -3.9216 -3.9216c -2.1658,-0.0000 -3.9216,1.7557 -3.9216 3.9216c -0.0000,2.1658 1.7557,3.9216 3.9216 3.9216c 2.1658,0.0000 3.9216,-1.7557 3.9216 -3.9216Z"/></g><g stroke-linejoin="miter" fill-opacity="0.0" fill="rgb(0,0,0)" stroke="rgb(0,0,0)" stroke-linecap="butt" stroke-miterlimit="10.0" stroke-opacity="1.0" stroke-width="1.6"><path d="M 393.8398,248.7627 c 0.0000,-2.1658 -1.7557,-3.9216 -3.9216 -3.9216c -2.1658,-0.0000 -3.9216,1.7557 -3.9216 3.9216c -0.0000,2.1658 1.7557,3.9216 3.9216 3.9216c 2.1658,0.0000 3.9216,-1.7557 3.9216 -3.9216Z"/></g><g stroke-linejoin="miter" fill-opacity="0.0" fill="rgb(0,0,0)" stroke="rgb(0,0,0)" stroke-linecap="butt" stroke-miterlimit="10.0" stroke-opacity="1.0" stroke-width="1.6"><path d="M 396.5269,236.7414 c 0.0000,-2.1658 -1.7557,-3.9216 -3.9216 -3.9216c -2.1658,-0.0000 -3.9216,1.7557 -3.9216 3.9216c -0.0000,2.1658 1.7557,3.9216 3.9216 3.9216c 2.1658,0.0000 3.9216,-1.7557 3.9216 -3.9216Z"/></g><g stroke-linejoin="miter" fill-opacity="0.0" fill="rgb(0,0,0)" stroke="rgb(0,0,0)" stroke-linecap="butt" stroke-miterlimit="10.0" stroke-opacity="1.0" stroke-width="1.6"><path d="M 398.4539,224.5751 c 0.0000,-2.1658 -1.7557,-3.9216 -3.9216 -3.9216c -2.1658,-0.0000 -3.9216,1.7557 -3.9216 3.9216c -0.0000,2.1658 1.7557,3.9216 3.9216 3.9216c 2.1658,0.0000 3.9216,-1.7557 3.9216 -3.9216Z"/></g><g stroke-linejoin="miter" fill-opacity="0.0" fill="rgb(0,0,0)" stroke="rgb(0,0,0)" stroke-linecap="butt" stroke-miterlimit="10.0" stroke-opacity="1.0" stroke-width="1.6"><path d="M 399.6131,212.3119 c 0.0000,-2.1658 -1.7557,-3.9216 -3.9216 -3.9216c -2.1658,-0.0000 -3.9216,1.7557 -3.9216 3.9216c -0.0000,2.1658 1.7557,3.9216 3.9216 3.9216c 2.1658,0.0000 3.9216,-1.7557 3.9216 -3.9216Z"/></g><g stroke-linejoin="miter" fill-opacity="0.0" fill="rgb(0,0,0)" stroke="rgb(0,0,0)" stroke-linecap="butt" stroke-miterlimit="10.0" stroke-opacity="1.0" stroke-width="1.6"><path d="M 400.0000,200.0000 c 0.0000,-2.1658 -1.7557,-3.9216 -3.9216 -3.9216c -2.1658,-0.0000 -3.9216,1.7557 -3.9216 3.9216c -0.0000,2.1658 1.7557,3.9216 3.9216 3.9216c 2.1658,0.0000 3.9216,-1.7557 3.9216 -3.9216Z"/></g></svg>