<?xml version="1.0" encoding="UTF-8"?>
<!DOCTYPE svg PUBLIC "-//W3C//DTD SVG 1.1//EN"
    "http://www.w3.org/Graphics/SVG/1.1/DTD/svg11.dtd"><svg font-size="1" viewBox="0.0 0.0 400.0 501.8775971466305" stroke="rgb(0,0,0)" xmlns="http://www.w3.org/2000/svg" width="400.0000" stroke-opacity="1" height="501.8776" version="1.1" xmlns:xlink="http://www.w3.org/1999/xlink"><defs></defs><g stroke-linejoin="miter" fill-opacity="0.0" fill="rgb(0,0,0)" stroke="rgb(0,0,0)" stroke-linecap="butt" stroke-miterlimit="10.0" stroke-opacity="1.0" stroke-width="1.7922099826020486"><path d="M 288.6364,398.0407 c 0.0000,-2.7308 -2.2138,-4.9446 -4.9446 -4.9446c -2.7308,-0.0000 -4.9446,2.2138 -4.9446 4.9446c -0.0000,2.7308 2.2138,4.9446 4.9446 4.9446c 2.7308,0.0000 4.9446,-2.2138 4.9446 -4.9446Z"/></g><g stroke-linejoin="miter" fill-opacity="0.0" fill="rgb(0,0,0)" stroke="rgb(0,0,0)" stroke-linecap="butt" stroke-miterlimit="10.0" stroke-opacity="1.0" stroke-width="1.7922099826020486"><path d="M 288.4413,391.8312 c 0.0000,-2.7308 -2.2138,-4.9446 -4.9446 -4.9446c -2.7308,-0.0000 -4.9446,2.2138 -4.9446 4.9446c -0.0000,2.7308 2.2138,4.9446 4.9446 4.9446c 2.7308,0.0000 4.9446,-2.2138 4.9446 -4.9446Z"/></g><g stroke-linejoin="miter" fill-opacity="0.0" fill="rgb(0,0,0)" stroke="rgb(0,0,0)" stroke-linecap="butt" stroke-miterlimit="10.0" stroke-opacity="1.0" stroke-width="1.7922099826020486"><path d="M 287.8566,385.6462 c 0.0000,-2.7308 -2.2138,-4.9446 -4.9446 -4.9446c -2.7308,-0.0000 -4.9446,2.2138 -4.9446 4.9446c -0.0000,2.7308 2.2138,4.9446 4.9446 4.9446c 2.7308,0.0000 4.9446,-2.2138 4.9446 -4.9446Z"/></g><g stroke-linejoin="miter" fill-opacity="0.0" fill="rgb(0,0,0)" stroke="rgb(0,0,0)" stroke-linecap="butt" stroke-miterlimit="10.0" stroke-opacity="1.0" stroke-width="1.7922099826020486"><path d="M 286.8848,379.5101 c 0.0000,-2.7308 -2.2138,-4.9446 -4.9446 -4.9446c -2.7308,-0.0000 -4.9446,2.2138 -4.9446 4.9446c -0.0000,2.7308 2.2138,4.9446 4.9446 4.9446c 2.7308,0.0000 4.9446,-2.2138 4.9446 -4.9446Z"/></g><g stroke-linejoin="miter" fill-opacity="0.0" fill="rgb(0,0,0)" stroke="rgb(0,0,0)" stroke-linecap="butt" stroke-miterlimit="10.0" stroke-opacity="1.0" stroke-width="1.7922099826020486"><path d="M 285.5295,373.4471 c 0.0000,-2.7308 -2.2138,-4.9446 -4.9446 -4.9446c -2.7308,-0.0000 -4.9446,2.2138 -4.9446 4.9446c -0.0000,2.7308 2.2138,4.9446 4.9446 4.9446c 2.7308,0.0000 4.9446,-2.2138 4.9446 -4.9446Z"/></g><g stroke-linejoin="miter" fill-opacity="0.0" fill="rgb(0,0,0)" stroke="rgb(0,0,0)" stroke-linecap="butt" stroke-miterlimit="10.0" stroke-opacity="1.0" stroke-width="1.7922099826020486"><path d="M 283.7963,367.4812 c 0.0000,-2.7308 -2.2138,-4.9446 -4.9446 -4.9446c -2.7308,-0.0000 -4.9446,2.2138 -4.9446 4.9446c -0.0000,2.7308 2.2138,4.9446 4.9446 4.9446c 2.7308,0.0000 4.9446,-2.2138 4.9446 -4.9446Z"/></g><g stroke-linejoin="miter" fill-opacity="0.0" fill="rgb(0,0,0)" stroke="rgb(0,0,0)" stroke-linecap="butt" stroke-miterlimit="10.0" stroke-opacity="1.0" stroke-width="1.7922099826020486"><path d="M 281.6918,361.6360 c 0.0000,-2.7308 -2.2138,-4.9446 -4.9446 -4.9446c -2.7308,-0.0000 -4.9446,2.2138 -4.9446 4.9446c -0.0000,2.7308 2.2138,4.9446 4.9446 4.9446c 2.7308,0.0000 4.9446,-2.2138 4.9446 -4.9446Z"/></g><g stroke-linejoin="miter" fill-opacity="0.0" fill="rgb(0,0,0)" stroke="rgb(0,0,0)" stroke-linecap="butt" stroke-miterlimit="10.0" stroke-opacity="1.0" stroke-width="1.7922099826020486"><path d="M 279.2245,355.9343 c 0.0000,-2.7308 -2.2138,-4.9446 -4.9446 -4.9446c -2.7308,-0.0000 -4.9446,2.2138 -4.9446 4.9446c -0.0000,2.7308 2.2138,4.9446 4.9446 4.9446c 2.7308,0.0000 4.9446,-2.2138 4.9446 -4.9446Z"/></g><g stroke-linejoin="miter" fill-opacity="0.0" fill="rgb(0,0,0)" stroke="rgb(0,0,0)" stroke-linecap="butt" stroke-miterlimit="10.0" stroke-opacity="1.0" stroke-width="1.7922099826020486"><path d="M 276.4041,350.3989 c 0.0000,-2.7308 -2.2138,-4.9446 -4.9446 -4.9446c -2.7308,-0.0000 -4.9446,2.2138 -4.9446 4.9446c -0.0000,2.7308 2.2138,4.9446 4.9446 4.9446c 2.7308,0.0000 4.9446,-2.2138 4.9446 -4.9446Z"/></g><g stroke-linejoin="miter" fill-opacity="0.0" fill="rgb(0,0,0)" stroke="rgb(0,0,0)" stroke-linecap="butt" stroke-miterlimit="10.0" stroke-opacity="1.0" stroke-width="1.7922099826020486"><path d="M 273.2416,345.0515 c 0.0000,-2.7308 -2.2138,-4.9446 -4.9446 -4.9446c -2.7308,-0.0000 -4.9446,2.2138 -4.9446 4.9446c -0.0000,2.7308 2.2138,4.9446 4.9446 4.9446c 2.7308,0.0000 4.9446,-2.2138 4.9446 -4.9446Z"/></g><g stroke-linejoin="miter" fill-opacity="0.0" fill="rgb(0,0,0)" stroke="rgb(0,0,0)" stroke-linecap="butt" stroke-miterlimit="10.0" stroke-opacity="1.0" stroke-width="1.7922099826020486"><path d="M 269.7497,339.9132 c 0.0000,-2.7308 -2.2138,-4.9446 -4.9446 -4.9446c -2.7308,-0.0000 -4.9446,2.2138 -4.9446 4.9446c -0.0000,2.7308 2.2138,4.9446 4.9446 4.9446c 2.7308,0.0000 4.9446,-2.2138 4.9446 -4.9446Z"/></g><g stroke-linejoin="miter" fill-opacity="0.0" fill="rgb(0,0,0)" stroke="rgb(0,0,0)" stroke-linecap="butt" stroke-miterlimit="10.0" stroke-opacity="1.0" stroke-width="1.7922099826020486"><path d="M 265.9419,335.0043 c 0.0000,-2.7308 -2.2138,-4.9446 -4.9446 -4.9446c -2.7308,-0.0000 -4.9446,2.2138 -4.9446 4.9446c -0.0000,2.7308 2.2138,4.9446 4.9446 4.9446c 2.7308,0.0000 4.9446,-2.2138 4.9446 -4.9446Z"/></g><g stroke-linejoin="miter" fill-opacity="0.0" fill="rgb(0,0,0)" stroke="rgb(0,0,0)" stroke-linecap="butt" stroke-miterlimit="10.0" stroke-opacity="1.0" stroke-width="1.7922099826020486"><path d="M 261.8335,330.3442 c 0.0000,-2.7308 -2.2138,-4.9446 -4.9446 -4.9446c -2.7308,-0.0000 -4.9446,2.2138 -4.9446 4.9446c -0.0000,2.7308 2.2138,4.9446 4.9446 4.9446c 2.7308,0.0000 4.9446,-2.2138 4.9446 -4.9446Z"/></g><g stroke-linejoin="miter" fill-opacity="0.0" fill="rgb(0,0,0)" stroke="rgb(0,0,0)" stroke-linecap="butt" stroke-miterlimit="10.0" stroke-opacity="1.0" stroke-width="1.7922099826020486"><path d="M 257.4405,325.9512 c 0.0000,-2.7308 -2.2138,-4.9446 -4.9446 -4.9446c -2.7308,-0.0000 -4.9446,2.2138 -4.9446 4.9446c -0.0000,2.7308 2.2138,4.9446 4.9446 4.9446c 2.7308,0.0000 4.9446,-2.2138 4.9446 -4.9446Z"/></g><g stroke-linejoin="miter" fill-opacity="0.0" fill="rgb(0,0,0)" stroke="rgb(0,0,0)" stroke-linecap="butt" stroke-miterlimit="10.0" stroke-opacity="1.0" stroke-width="1.7922099826020486"><path d="M 252.7804,321.8428 c 0.0000,-2.7308 -2.2138,-4.9446 -4.9446 -4.9446c -2.7308,-0.0000 -4.9446,2.2138 -4.9446 4.9446c -0.0000,2.7308 2.2138,4.9446 4.9446 4.9446c 2.7308,0.0000 4.9446,-2.2138 4.9446 -4.9446Z"/></g><g stroke-linejoin="miter" fill-opacity="0.0" fill="rgb(0,0,0)" stroke="rgb(0,0,0)" stroke-linecap="butt" stroke-miterlimit="10.0" stroke-opacity="1.0" stroke-width="1.7922099826020486"><path d="M 247.8715,318.0351 c 0.0000,-2.7308 -2.2138,-4.9446 -4.9446 -4.9446c -2.7308,-0.0000 -4.9446,2.2138 -4.9446 4.9446c -0.0000,2.7308 2.2138,4.9446 4.9446 4.9446c 2.7308,0.0000 4.9446,-2.2138 4.9446 -4.9446Z"/></g><g stroke-linejoin="miter" fill-opacity="0.0" fill="rgb(0,0,0)" stroke="rgb(0,0,0)" stroke-linecap="butt" stroke-miterlimit="10.0" stroke-opacity="1.0" stroke-width="1.7922099826020486"><path d="M 242.7332,314.5431 c 0.0000,-2.7308 -2.2138,-4.9446 -4.9446 -4.9446c -2.7308,-0.0000 -4.9446,2.2138 -4.9446 4.9446c -0.0000,2.7308 2.2138,4.9446 4.9446 4.9446c 2.7308,0.0000 4.9446,-2.2138 4.9446 -4.9446Z"/></g><g stroke-linejoin="miter" fill-opacity="0.0" fill="rgb(0,0,0)" stroke="rgb(0,0,0)" stroke-linecap="butt" stroke-miterlimit="10.0" stroke-opacity="1.0" stroke-width="1.7922099826020486"><path d="M 237.3858,311.3806 c 0.0000,-2.7308 -2.2138,-4.9446 -4.9446 -4.9446c -2.7308,-0.0000 -4.9446,2.2138 -4.9446 4.9446c -0.0000,2.7308 2.2138,4.9446 4.9446 4.9446c 2.7308,0.0000 4.9446,-2.2138 4.9446 -4.9446Z"/></g><g stroke-linejoin="miter" fill-opacity="0.0" fill="rgb(0,0,0)" stroke="rgb(0,0,0)" stroke-linecap="butt" stroke-miterlimit="10.0" stroke-opacity="1.0" stroke-width="1.7922099826020486"><path d="M 231.8504,308.5602 c 0.0000,-2.7308 -2.2138,-4.9446 -4.9446 -4.9446c -2.7308,-0.0000 -4.9446,2.2138 -4.9446 4.9446c -0.0000,2.7308 2.2138,4.9446 4.9446 4.9446c 2.7308,0.0000 4.9446,-2.2138 4.9446 -4.9446Z"/></g><g stroke-linejoin="miter" fill-opacity="0.0" fill="rgb(0,0,0)" stroke="rgb(0,0,0)" stroke-linecap="butt" stroke-miterlimit="10.0" stroke-opacity="1.0" stroke-width="1.7922099826020486"><path d="M 226.1488,306.0929 c 0.0000,-2.7308 -2.2138,-4.9446 -4.9446 -4.9446c -2.7308,-0.0000 -4.9446,2.2138 -4.9446 4.9446c -0.0000,2.7308 2.2138,4.9446 4.9446 4.9446c 2.7308,0.0000 4.9446,-2.2138 4.9446 -4.9446Z"/></g><g stroke-linejoin="miter" fill-opacity="0.0" fill="rgb(0,0,0)" stroke="rgb(0,0,0)" stroke-linecap="butt" stroke-miterlimit="10.0" stroke-opacity="1.0" stroke-width="1.7922099826020486"><path d="M 220.3035,303.9885 c 0.0000,-2.7308 -2.2138,-4.9446 -4.9446 -4.9446c -2.7308,-0.0000 -4.9446,2.2138 -4.9446 4.9446c -0.0000,2.7308 2.2138,4.9446 4.9446 4.9446c 2.7308,0.0000 4.9446,-2.2138 4.9446 -4.9446Z"/></g><g stroke-linejoin="miter" fill-opacity="0.0" fill="rgb(0,0,0)" stroke="rgb(0,0,0)" stroke-linecap="butt" stroke-miterlimit="10.0" stroke-opacity="1.0" stroke-width="1.7922099826020486"><path d="M 214.3376,302.2552 c 0.0000,-2.7308 -2.2138,-4.9446 -4.9446 -4.9446c -2.7308,-0.0000 -4.9446,2.2138 -4.9446 4.9446c -0.0000,2.7308 2.2138,4.9446 4.9446 4.9446c 2.7308,0.0000 4.9446,-2.2138 4.9446 -4.9446Z"/></g><g stroke-linejoin="miter" fill-opacity="0.0" fill="rgb(0,0,0)" stroke="rgb(0,0,0)" stroke-linecap="butt" stroke-miterlimit="10.0" stroke-opacity="1.0" stroke-width="1.7922099826020486"><path d="M 208.2747,300.9000 c 0.0000,-2.7308 -2.2138,-4.9446 -4.9446 -4.9446c -2.7308,-0.0000 -4.9446,2.2138 -4.9446 4.9446c -0.0000,2.7308 2.2138,4.9446 4.9446 4.9446c 2.7308,0.0000 4.9446,-2.2138 4.9446 -4.9446Z"/></g><g stroke-linejoin="miter" fill-opacity="0.0" fill="rgb(0,0,0)" stroke="rgb(0,0,0)" stroke-linecap="butt" stroke-miterlimit="10.0" stroke-opacity="1.0" stroke-width="1.7922099826020486"><path d="M 202.1386,299.9281 c 0.0000,-2.7308 -2.2138,-4.9446 -4.9446 -4.9446c -2.7308,-0.0000 -4.9446,2.2138 -4.9446 4.9446c -0.0000,2.7308 2.2138,4.9446 4.9446 4.9446c 2.7308,0.0000 4.9446,-2.2138 4.9446 -4.9446Z"/></g><g stroke-linejoin="miter" fill-opacity="0.0" fill="rgb(0,0,0)" stroke="rgb(0,0,0)" stroke-linecap="butt" stroke-miterlimit="10.0" stroke-opacity="1.0" stroke-width="1.7922099826020486"><path d="M 195.9536,299.3435 c 0.0000,-2.7308 -2.2138,-4.9446 -4.9446 -4.9446c -2.7308,-0.0000 -4.9446,2.2138 -4.9446 4.9446c -0.0000,2.7308 2.2138,4.9446 4.9446 4.9446c 2.7308,0.0000 4.9446,-2.2138 4.9446 -4.9446Z"/></g><g stroke-linejoin="miter" fill-opacity="0.0" fill="rgb(0,0,0)" stroke="rgb(0,0,0)" stroke-linecap="butt" stroke-miterlimit="10.0" stroke-opacity="1.0" stroke-width="1.7922099826020486"><path d="M 189.7441,299.1483 c 0.0000,-2.7308 -2.2138,-4.9446 -4.9446 -4.9446c -2.7308,-0.0000 -4.9446,2.2138 -4.9446 4.9446c -0.0000,2.7308 2.2138,4.9446 4.9446 4.9446c 2.7308,0.0000 4.9446,-2.2138 4.9446 -4.9446Z"/></g><g stroke-linejoin="miter" fill-opacity="0.0" fill="rgb(0,0,0)" stroke="rgb(0,0,0)" stroke-linecap="butt" stroke-miterlimit="10.0" stroke-opacity="1.0" stroke-width="1.7922099826020486"><path d="M 183.5346,299.3435 c 0.0000,-2.7308 -2.2138,-4.9446 -4.9446 -4.9446c -2.7308,-0.0000 -4.9446,2.2138 -4.9446 4.9446c -0.0000,2.7308 2.2138,4.9446 4.9446 4.9446c 2.7308,0.0000 4.9446,-2.2138 4.9446 -4.9446Z"/></g><g stroke-linejoin="miter" fill-opacity="0.0" fill="rgb(0,0,0)" stroke="rgb(0,0,0)" stroke-linecap="butt" stroke-miterlimit="10.0" stroke-opacity="1.0" stroke-width="1.7922099826020486"><path d="M 177.3496,299.9281 c 0.0000,-2.7308 -2.2138,-4.9446 -4.9446 -4.9446c -2.7308,-0.0000 -4.9446,2.2138 -4.9446 4.9446c -0.0000,2.7308 2.2138,4.9446 4.9446 4.9446c 2.7308,0.0000 4.9446,-2.2138 4.9446 -4.9446Z"/></g><g stroke-linejoin="miter" fill-opacity="0.0" fill="rgb(0,0,0)" stroke="rgb(0,0,0)" stroke-linecap="butt" stroke-miterlimit="10.0" stroke-opacity="1.0" stroke-width="1.7922099826020486"><path d="M 171.2135,300.9000 c 0.0000,-2.7308 -2.2138,-4.9446 -4.9446 -4.9446c -2.7308,-0.0000 -4.9446,2.2138 -4.9446 4.9446c -0.0000,2.7308 2.2138,4.9446 4.9446 4.9446c 2.7308,0.0000 4.9446,-2.2138 4.9446 -4.9446Z"/></g><g stroke-linejoin="miter" fill-opacity="0.0" fill="rgb(0,0,0)" stroke="rgb(0,0,0)" stroke-linecap="butt" stroke-miterlimit="10.0" stroke-opacity="1.0" stroke-width="1.7922099826020486"><path d="M 165.1506,302.2552 c 0.0000,-2.7308 -2.2138,-4.9446 -4.9446 -4.9446c -2.7308,-0.0000 -4.9446,2.2138 -4.9446 4.9446c -0.0000,2.7308 2.2138,4.9446 4.9446 4.9446c 2.7308,0.0000 4.9446,-2.2138 4.9446 -4.9446Z"/></g><g stroke-linejoin="miter" fill-opacity="0.0" fill="rgb(0,0,0)" stroke="rgb(0,0,0)" stroke-linecap="butt" stroke-miterlimit="10.0" stroke-opacity="1.0" stroke-width="1.7922099826020486"><path d="M 159.1847,303.9885 c 0.0000,-2.7308 -2.2138,-4.9446 -4.9446 -4.9446c -2.7308,-0.0000 -4.9446,2.2138 -4.9446 4.9446c -0.0000,2.7308 2.2138,4.9446 4.9446 4.9446c 2.7308,0.0000 4.9446,-2.2138 4.9446 -4.9446Z"/></g><g stroke-linejoin="miter" fill-opacity="0.0" fill="rgb(0,0,0)" stroke="rgb(0,0,0)" stroke-linecap="butt" stroke-miterlimit="10.0" stroke-opacity="1.0" stroke-width="1.7922099826020486"><path d="M 153.3394,306.0929 c 0.0000,-2.7308 -2.2138,-4.9446 -4.9446 -4.9446c -2.7308,-0.0000 -4.9446,2.2138 -4.9446 4.9446c -0.0000,2.7308 2.2138,4.9446 4.9446 4.9446c 2.7308,0.0000 4.9446,-2.2138 4.9446 -4.9446Z"/></g><g stroke-linejoin="miter" fill-opacity="0.0" fill="rgb(0,0,0)" stroke="rgb(0,0,0)" stroke-linecap="butt" stroke-miterlimit="10.0" stroke-opacity="1.0" stroke-width="1.7922099826020486"><path d="M 147.6378,308.5602 c 0.0000,-2.7308 -2.2138,-4.9446 -4.9446 -4.9446c -2.7308,-0.0000 -4.9446,2.2138 -4.9446 4.9446c -0.0000,2.7308 2.2138,4.9446 4.9446 4.9446c 2.7308,0.0000 4.9446,-2.2138 4.9446 -4.9446Z"/></g><g stroke-linejoin="miter" fill-opacity="0.0" fill="rgb(0,0,0)" stroke="rgb(0,0,0)" stroke-linecap="butt" stroke-miterlimit="10.0" stroke-opacity="1.0" stroke-width="1.7922099826020486"><path d="M 142.1023,311.3806 c 0.0000,-2.7308 -2.2138,-4.9446 -4.9446 -4.9446c -2.7308,-0.0000 -4.9446,2.2138 -4.9446 4.9446c -0.0000,2.7308 2.2138,4.9446 4.9446 4.9446c 2.7308,0.0000 4.9446,-2.2138 4.9446 -4.9446Z"/></g><g stroke-linejoin="miter" fill-opacity="0.0" fill="rgb(0,0,0)" stroke="rgb(0,0,0)" stroke-linecap="butt" stroke-miterlimit="10.0" stroke-opacity="1.0" stroke-width="1.7922099826020486"><path d="M 136.7549,314.5431 c 0.0000,-2.7308 -2.2138,-4.9446 -4.9446 -4.9446c -2.7308,-0.0000 -4.9446,2.2138 -4.9446 4.9446c -0.0000,2.7308 2.2138,4.9446 4.9446 4.9446c 2.7308,0.0000 4.9446,-2.2138 4.9446 -4.9446Z"/></g><g stroke-linejoin="miter" fill-opacity="0.0" fill="rgb(0,0,0)" stroke="rgb(0,0,0)" stroke-linecap="butt" stroke-miterlimit="10.0" stroke-opacity="1.0" stroke-width="1.7922099826020486"><path d="M 131.6166,318.0351 c 0.0000,-2.7308 -2.2138,-4.9446 -4.9446 -4.9446c -2.7308,-0.0000 -4.9446,2.2138 -4.9446 4.9446c -0.0000,2.7308 2.2138,4.9446 4.9446 4.9446c 2.7308,0.0000 4.9446,-2.2138 4.9446 -4.9446Z"/></g><g stroke-linejoin="miter" fill-opacity="0.0" fill="rgb(0,0,0)" stroke="rgb(0,0,0)" stroke-linecap="butt" stroke-miterlimit="10.0" stroke-opacity="1.0" stroke-width="1.7922099826020486"><path d="M 126.7077,321.8428 c 0.0000,-2.7308 -2.2138,-4.9446 -4.9446 -4.9446c -2.7308,-0.0000 -4.9446,2.2138 -4.9446 4.9446c -0.0000,2.7308 2.2138,4.9446 4.9446 4.9446c 2.7308,0.0000 4.9446,-2.2138 4.9446 -4.9446Z"/></g><g stroke-linejoin="miter" fill-opacity="0.0" fill="rgb(0,0,0)" stroke="rgb(0,0,0)" stroke-linecap="butt" stroke-miterlimit="10.0" stroke-opacity="1.0" stroke-width="1.7922099826020486"><path d="M 122.0476,325.9512 c 0.0000,-2.7308 -2.2138,-4.9446 -4.9446 -4.9446c -2.7308,-0.0000 -4.9446,2.2138 -4.9446 4.9446c -0.0000,2.7308 2.2138,4.9446 4.9446 4.9446c 2.7308,0.0000 4.9446,-2.2138 4.9446 -4.9446Z"/></g><g stroke-linejoin="miter" fill-opacity="0.0" fill="rgb(0,0,0)" stroke="rgb(0,0,0)" stroke-linecap="butt" stroke-miterlimit="10.0" stroke-opacity="1.0" stroke-width="1.7922099826020486"><path d="M 117.6547,330.3442 c 0.0000,-2.7308 -2.2138,-4.9446 -4.9446 -4.9446c -2.7308,-0.0000 -4.9446,2.2138 -4.9446 4.9446c -0.0000,2.7308 2.2138,4.9446 4.9446 4.9446c 2.7308,0.0000 4.9446,-2.2138 4.9446 -4.9446Z"/></g><g stroke-linejoin="miter" fill-opacity="0.0" fill="rgb(0,0,0)" stroke="rgb(0,0,0)" stroke-linecap="butt" stroke-miterlimit="10.0" stroke-opacity="1.0" stroke-width="1.7922099826020486"><path d="M 113.5462,335.0043 c 0.0000,-2.7308 -2.2138,-4.9446 -4.9446 -4.9446c -2.7308,-0.0000 -4.9446,2.2138 -4.9446 4.9446c -0.0000,2.7308 2.2138,4.9446 4.9446 4.9446c 2.7308,0.0000 4.9446,-2.2138 4.9446 -4.9446Z"/></g><g stroke-linejoin="miter" fill-opacity="0.0" fill="rgb(0,0,0)" stroke="rgb(0,0,0)" stroke-linecap="butt" stroke-miterlimit="10.0" stroke-opacity="1.0" stroke-width="1.7922099826020486"><path d="M 109.7385,339.9132 c 0.0000,-2.7308 -2.2138,-4.9446 -4.9446 -4.9446c -2.7308,-0.0000 -4.9446,2.2138 -4.9446 4.9446c -0.0000,2.7308 2.2138,4.9446 4.9446 4.9446c 2.7308,0.0000 4.9446,-2.2138 4.9446 -4.9446Z"/></g><g stroke-linejoin="miter" fill-opacity="0.0" fill="rgb(0,0,0)" stroke="rgb(0,0,0)" stroke-linecap="butt" stroke-miterlimit="10.0" stroke-opacity="1.0" stroke-width="1.7922099826020486"><path d="M 106.2465,345.0515 c 0.0000,-2.7308 -2.2138,-4.9446 -4.9446 -4.9446c -2.7308,-0.0000 -4.9446,2.2138 -4.9446 4.9446c -0.0000,2.7308 2.2138,4.9446 4.9446 4.9446c 2.7308,0.0000 4.9446,-2.2138 4.9446 -4.9446Z"/></g><g stroke-linejoin="miter" fill-opacity="0.0" fill="rgb(0,0,0)" stroke="rgb(0,0,0)" stroke-linecap="butt" stroke-miterlimit="10.0" stroke-opacity="1.0" stroke-width="1.7922099826020486"><path d="M 103.0841,350.3989 c 0.0000,-2.7308 -2.2138,-4.9446 -4.9446 -4.9446c -2.7308,-0.0000 -4.9446,2.2138 -4.9446 4.9446c -0.0000,2.7308 2.2138,4.9446 4.9446 4.9446c 2.7308,0.0000 4.9446,-2.2138 4.9446 -4.9446Z"/></g><g stroke-linejoin="miter" fill-opacity="0.0" fill="rgb(0,0,0)" stroke="rgb(0,0,0)" stroke-linecap="butt" stroke-miterlimit="10.0" stroke-opacity="1.0" stroke-width="1.7922099826020486"><path d="M 100.2636,355.9343 c 0.0000,-2.7308 -2.2138,-4.9446 -4.9446 -4.9446c -2.7308,-0.0000 -4.9446,2.2138 -4.9446 4.9446c -0.0000,2.7308 2.2138,4.9446 4.9446 4.9446c 2.7308,0.0000 4.9446,-2.2138 4.9446 -4.9446Z"/></g><g stroke-linejoin="miter" fill-opacity="0.0" fill="rgb(0,0,0)" stroke="rgb(0,0,0)" stroke-linecap="butt" stroke-miterlimit="10.0" stroke-opacity="1.0" stroke-width="1.7922099826020486"><path d="M 97.7963,361.6360 c 0.0000,-2.7308 -2.2138,-4.9446 -4.9446 -4.9446c -2.7308,-0.0000 -4.9446,2.2138 -4.9446 4.9446c -0.0000,2.7308 2.2138,4.9446 4.9446 4.9446c 2.7308,0.0000 4.9446,-2.2138 4.9446 -4.9446Z"/></g><g stroke-linejoin="miter" fill-opacity="0.0" fill="rgb(0,0,0)" stroke="rgb(0,0,0)" stroke-linecap="butt" stroke-miterlimit="10.0" stroke-opacity="1.0" stroke-width="1.7922099826020486"><path d="M 95.6919,367.4812 c 0.0000,-2.7308 -2.2138,-4.9446 -4.9446 -4.9446c -2.7308,-0.0000 -4.9446,2.2138 -4.9446 4.9446c -0.0000,2.7308 2.2138,4.9446 4.9446 4.9446c 2.7308,0.0000 4.9446,-2.2138 4.9446 -4.9446Z"/></g><g stroke-linejoin="miter" fill-opacity="0.0" fill="rgb(0,0,0)" stroke="rgb(0,0,0)" stroke-linecap="butt" stroke-miterlimit="10.0" stroke-opacity="1.0" stroke-width="1.7922099826020486"><path d="M 93.9586,373.4471 c 0.0000,-2.7308 -2.2138,-4.9446 -4.9446 -4.9446c -2.7308,-0.0000 -4.9446,2.2138 -4.9446 4.9446c -0.0000,2.7308 2.2138,4.9446 4.9446 4.9446c 2.7308,0.0000 4.9446,-2.2138 4.9446 -4.9446Z"/></g><g stroke-linejoin="miter" fill-opacity="0.0" fill="rgb(0,0,0)" stroke="rgb(0,0,0)" stroke-linecap="butt" stroke-miterlimit="10.0" stroke-opacity="1.0" stroke-width="1.7922099826020486"><path d="M 92.6034,379.5101 c 0.0000,-2.7308 -2.2138,-4.9446 -4.9446 -4.9446c -2.7308,-0.0000 -4.9446,2.2138 -4.9446 4.9446c -0.0000,2.7308 2.2138,4.9446 4.9446 4.9446c 2.7308,0.0000 4.9446,-2.2138 4.9446 -4.9446Z"/></g><g stroke-linejoin="miter" fill-opacity="0.0" fill="rgb(0,0,0)" stroke="rgb(0,0,0)" stroke-linecap="butt" stroke-miterlimit="10.0" stroke-opacity="1.0" stroke-width="1.7922099826020486"><path d="M 91.6315,385.6462 c 0.0000,-2.7308 -2.2138,-4.9446 -4.9446 -4.9446c -2.7308,-0.0000 -4.9446,2.2138 -4.9446 4.9446c -0.0000,2.7308 2.2138,4.9446 4.9446 4.9446c 2.7308,0.0000 4.9446,-2.2138 4.9446 -4.9446Z"/></g><g stroke-linejoin="miter" fill-opacity="0.0" fill="rgb(0,0,0)" stroke="rgb(0,0,0)" stroke-linecap="butt" stroke-miterlimit="10.0" stroke-opacity="1.0" stroke-width="1.7922099826020486"><path d="M 91.0469,391.8312 c 0.0000,-2.7308 -2.2138,-4.9446 -4.9446 -4.9446c -2.7308,-0.0000 -4.9446,2.2138 -4.9446 4.9446c -0.0000,2.7308 2.2138,4.9446 4.9446 4.9446c 2.7308,0.0000 4.9446,-2.2138 4.9446 -4.9446Z"/></g><g stroke-linejoin="miter" fill-opacity="0.0" fill="rgb(0,0,0)" stroke="rgb(0,0,0)" stroke-linecap="butt" stroke-miterlimit="10.0" stroke-opacity="1.0" stroke-width="1.7922099826020486"><path d="M 90.8517,398.0407 c 0.0000,-2.7308 -2.2138,-4.9446 -4.9446 -4.9446c -2.7308,-0.0000 -4.9446,2.2138 -4.9446 4.9446c -0.0000,2.7308 2.2138,4.9446 4.9446 4.9446c 2.7308,0.0000 4.9446,-2.2138 4.9446 -4.9446Z"/></g><g stroke-linejoin="miter" fill-opacity="0.0" fill="rgb(0,0,0)" stroke="rgb(0,0,0)" stroke-linecap="butt" stroke-miterlimit="10.0" stroke-opacity="1.0" stroke-width="1.7922099826020486"><path d="M 91.0469,404.2502 c 0.0000,-2.7308 -2.2138,-4.9446 -4.9446 -4.9446c -2.7308,-0.0000 -4.9446,2.2138 -4.9446 4.9446c -0.0000,2.7308 2.2138,4.9446 4.9446 4.9446c 2.7308,0.0000 4.9446,-2.2138 4.9446 -4.9446Z"/></g><g stroke-linejoin="miter" fill-opacity="0.0" fill="rgb(0,0,0)" stroke="rgb(0,0,0)" stroke-linecap="butt" stroke-miterlimit="10.0" stroke-opacity="1.0" stroke-width="1.7922099826020486"><path d="M 91.6315,410.4351 c 0.0000,-2.7308 -2.2138,-4.9446 -4.9446 -4.9446c -2.7308,-0.0000 -4.9446,2.2138 -4.9446 4.9446c -0.0000,2.7308 2.2138,4.9446 4.9446 4.9446c 2.7308,0.0000 4.9446,-2.2138 4.9446 -4.9446Z"/></g><g stroke-linejoin="miter" fill-opacity="0.0" fill="rgb(0,0,0)" stroke="rgb(0,0,0)" stroke-linecap="butt" stroke-miterlimit="10.0" stroke-opacity="1.0" stroke-width="1.7922099826020486"><path d="M 92.6034,416.5712 c 0.0000,-2.7308 -2.2138,-4.9446 -4.9446 -4.9446c -2.7308,-0.0000 -4.9446,2.2138 -4.9446 4.9446c -0.0000,2.7308 2.2138,4.9446 4.9446 4.9446c 2.7308,0.0000 4.9446,-2.2138 4.9446 -4.9446Z"/></g><g stroke-linejoin="miter" fill-opacity="0.0" fill="rgb(0,0,0)" stroke="rgb(0,0,0)" stroke-linecap="butt" stroke-miterlimit="10.0" stroke-opacity="1.0" stroke-width="1.7922099826020486"><path d="M 93.9586,422.6342 c 0.0000,-2.7308 -2.2138,-4.9446 -4.9446 -4.9446c -2.7308,-0.0000 -4.9446,2.2138 -4.9446 4.9446c -0.0000,2.7308 2.2138,4.9446 4.9446 4.9446c 2.7308,0.0000 4.9446,-2.2138 4.9446 -4.9446Z"/></g><g stroke-linejoin="miter" fill-opacity="0.0" fill="rgb(0,0,0)" stroke="rgb(0,0,0)" stroke-linecap="butt" stroke-miterlimit="10.0" stroke-opacity="1.0" stroke-width="1.7922099826020486"><path d="M 95.6919,428.6001 c 0.0000,-2.7308 -2.2138,-4.9446 -4.9446 -4.9446c -2.7308,-0.0000 -4.9446,2.2138 -4.9446 4.9446c -0.0000,2.7308 2.2138,4.9446 4.9446 4.9446c 2.7308,0.0000 4.9446,-2.2138 4.9446 -4.9446Z"/></g><g stroke-linejoin="miter" fill-opacity="0.0" fill="rgb(0,0,0)" stroke="rgb(0,0,0)" stroke-linecap="butt" stroke-miterlimit="10.0" stroke-opacity="1.0" stroke-width="1.7922099826020486"><path d="M 97.7963,434.4453 c 0.0000,-2.7308 -2.2138,-4.9446 -4.9446 -4.9446c -2.7308,-0.0000 -4.9446,2.2138 -4.9446 4.9446c -0.0000,2.7308 2.2138,4.9446 4.9446 4.9446c 2.7308,0.0000 4.9446,-2.2138 4.9446 -4.9446Z"/></g><g stroke-linejoin="miter" fill-opacity="0.0" fill="rgb(0,0,0)" stroke="rgb(0,0,0)" stroke-linecap="butt" stroke-miterlimit="10.0" stroke-opacity="1.0" stroke-width="1.7922099826020486"><path d="M 100.2636,440.1470 c 0.0000,-2.7308 -2.2138,-4.9446 -4.9446 -4.9446c -2.7308,-0.0000 -4.9446,2.2138 -4.9446 4.9446c -0.0000,2.7308 2.2138,4.9446 4.9446 4.9446c 2.7308,0.0000 4.9446,-2.2138 4.9446 -4.9446Z"/></g><g stroke-linejoin="miter" fill-opacity="0.0" fill="rgb(0,0,0)" stroke="rgb(0,0,0)" stroke-linecap="butt" stroke-miterlimit="10.0" stroke-opacity="1.0" stroke-width="1.7922099826020486"><path d="M 103.0841,445.6824 c 0.0000,-2.7308 -2.2138,-4.9446 -4.9446 -4.9446c -2.7308,-0.0000 -4.9446,2.2138 -4.9446 4.9446c -0.0000,2.7308 2.2138,4.9446 4.9446 4.9446c 2.7308,0.0000 4.9446,-2.2138 4.9446 -4.9446Z"/></g><g stroke-linejoin="miter" fill-opacity="0.0" fill="rgb(0,0,0)" stroke="rgb(0,0,0)" stroke-linecap="butt" stroke-miterlimit="10.0" stroke-opacity="1.0" stroke-width="1.7922099826020486"><path d="M 106.2465,451.0298 c 0.0000,-2.7308 -2.2138,-4.9446 -4.9446 -4.9446c -2.7308,-0.0000 -4.9446,2.2138 -4.9446 4.9446c -0.0000,2.7308 2.2138,4.9446 4.9446 4.9446c 2.7308,0.0000 4.9446,-2.2138 4.9446 -4.9446Z"/></g><g stroke-linejoin="miter" fill-opacity="0.0" fill="rgb(0,0,0)" stroke="rgb(0,0,0)" stroke-linecap="butt" stroke-miterlimit="10.0" stroke-opacity="1.0" stroke-width="1.7922099826020486"><path d="M 109.7385,456.1681 c 0.0000,-2.7308 -2.2138,-4.9446 -4.9446 -4.9446c -2.7308,-0.0000 -4.9446,2.2138 -4.9446 4.9446c -0.0000,2.7308 2.2138,4.9446 4.9446 4.9446c 2.7308,0.0000 4.9446,-2.2138 4.9446 -4.9446Z"/></g><g stroke-linejoin="miter" fill-opacity="0.0" fill="rgb(0,0,0)" stroke="rgb(0,0,0)" stroke-linecap="butt" stroke-miterlimit="10.0" stroke-opacity="1.0" stroke-width="1.7922099826020486"><path d="M 113.5462,461.0770 c 0.0000,-2.7308 -2.2138,-4.9446 -4.9446 -4.9446c -2.7308,-0.0000 -4.9446,2.2138 -4.9446 4.9446c -0.0000,2.7308 2.2138,4.9446 4.9446 4.9446c 2.7308,0.0000 4.9446,-2.2138 4.9446 -4.9446Z"/></g><g stroke-linejoin="miter" fill-opacity="0.0" fill="rgb(0,0,0)" stroke="rgb(0,0,0)" stroke-linecap="butt" stroke-miterlimit="10.0" stroke-opacity="1.0" stroke-width="1.7922099826020486"><path d="M 117.6547,465.7371 c 0.0000,-2.7308 -2.2138,-4.9446 -4.9446 -4.9446c -2.7308,-0.0000 -4.9446,2.2138 -4.9446 4.9446c -0.0000,2.7308 2.2138,4.9446 4.9446 4.9446c 2.7308,0.0000 4.9446,-2.2138 4.9446 -4.9446Z"/></g><g stroke-linejoin="miter" fill-opacity="0.0" fill="rgb(0,0,0)" stroke="rgb(0,0,0)" stroke-linecap="butt" stroke-miterlimit="10.0" stroke-opacity="1.0" stroke-width="1.7922099826020486"><path d="M 122.0476,470.1301 c 0.0000,-2.7308 -2.2138,-4.9446 -4.9446 -4.9446c -2.7308,-0.0000 -4.9446,2.2138 -4.9446 4.9446c -0.0000,2.7308 2.2138,4.9446 4.9446 4.9446c 2.7308,0.0000 4.9446,-2.2138 4.9446 -4.9446Z"/></g><g stroke-linejoin="miter" fill-opacity="0.0" fill="rgb(0,0,0)" stroke="rgb(0,0,0)" stroke-linecap="butt" stroke-miterlimit="10.0" stroke-opacity="1.0" stroke-width="1.7922099826020486"><path d="M 126.7077,474.2385 c 0.0000,-2.7308 -2.2138,-4.9446 -4.9446 -4.9446c -2.7308,-0.0000 -4.9446,2.2138 -4.9446 4.9446c -0.0000,2.7308 2.2138,4.9446 4.9446 4.9446c 2.7308,0.0000 4.9446,-2.2138 4.9446 -4.9446Z"/></g><g stroke-linejoin="miter" fill-opacity="0.0" fill="rgb(0,0,0)" stroke="rgb(0,0,0)" stroke-linecap="butt" stroke-miterlimit="10.0" stroke-opacity="1.0" stroke-width="1.7922099826020486"><path d="M 131.6166,478.0462 c 0.0000,-2.7308 -2.2138,-4.9446 -4.9446 -4.9446c -2.7308,-0.0000 -4.9446,2.2138 -4.9446 4.9446c -0.0000,2.7308 2.2138,4.9446 4.9446 4.9446c 2.7308,0.0000 4.9446,-2.2138 4.9446 -4.9446Z"/></g><g stroke-linejoin="miter" fill-opacity="0.0" fill="rgb(0,0,0)" stroke="rgb(0,0,0)" stroke-linecap="butt" stroke-miterlimit="10.0" stroke-opacity="1.0" stroke-width="1.7922099826020486"><path d="M 136.7549,481.5382 c 0.0000,-2.7308 -2.2138,-4.9446 -4.9446 -4.9446c -2.7308,-0.0000 -4.9446,2.2138 -4.9446 4.9446c -0.0000,2.7308 2.2138,4.9446 4.9446 4.9446c 2.7308,0.0000 4.9446,-2.2138 4.9446 -4.9446Z"/></g><g stroke-linejoin="miter" fill-opacity="0.0" fill="rgb(0,0,0)" stroke="rgb(0,0,0)" stroke-linecap="butt" stroke-miterlimit="10.0" stroke-opacity="1.0" stroke-width="1.7922099826020486"><path d="M 142.1023,484.7007 c 0.0000,-2.7308 -2.2138,-4.9446 -4.9446 -4.9446c -2.7308,-0.0000 -4.9446,2.2138 -4.9446 4.9446c -0.0000,2.7308 2.2138,4.9446 4.9446 4.9446c 2.7308,0.0000 4.9446,-2.2138 4.9446 -4.9446Z"/></g><g stroke-linejoin="miter" fill-opacity="0.0" fill="rgb(0,0,0)" stroke="rgb(0,0,0)" stroke-linecap="butt" stroke-miterlimit="10.0" stroke-opacity="1.0" stroke-width="1.7922099826020486"><path d="M 147.6378,487.5211 c 0.0000,-2.7308 -2.2138,-4.9446 -4.9446 -4.9446c -2.7308,-0.0000 -4.9446,2.2138 -4.9446 4.9446c -0.0000,2.7308 2.2138,4.9446 4.9446 4.9446c 2.7308,0.0000 4.9446,-2.2138 4.9446 -4.9446Z"/></g><g stroke-linejoin="miter" fill-opacity="0.0" fill="rgb(0,0,0)" stroke="rgb(0,0,0)" stroke-linecap="butt" stroke-miterlimit="10.0" stroke-opacity="1.0" stroke-width="1.7922099826020486"><path d="M 153.3394,489.9884 c 0.0000,-2.7308 -2.2138,-4.9446 -4.9446 -4.9446c -2.7308,-0.0000 -4.9446,2.2138 -4.9446 4.9446c -0.0000,2.7308 2.2138,4.9446 4.9446 4.9446c 2.7308,0.0000 4.9446,-2.2138 4.9446 -4.9446Z"/></g><g stroke-linejoin="miter" fill-opacity="0.0" fill="rgb(0,0,0)" stroke="rgb(0,0,0)" stroke-linecap="butt" stroke-miterlimit="10.0" stroke-opacity="1.0" stroke-width="1.7922099826020486"><path d="M 159.1847,492.0928 c 0.0000,-2.7308 -2.2138,-4.9446 -4.9446 -4.9446c -2.7308,-0.0000 -4.9446,2.2138 -4.9446 4.9446c -0.0000,2.7308 2.2138,4.9446 4.9446 4.9446c 2.7308,0.0000 4.9446,-2.2138 4.9446 -4.9446Z"/></g><g stroke-linejoin="miter" fill-opacity="0.0" fill="rgb(0,0,0)" stroke="rgb(0,0,0)" stroke-linecap="butt" stroke-miterlimit="10.0" stroke-opacity="1.0" stroke-width="1.7922099826020486"><path d="M 165.1506,493.8261 c 0.0000,-2.7308 -2.2138,-4.9446 -4.9446 -4.9446c -2.7308,-0.0000 -4.9446,2.2138 -4.9446 4.9446c -0.0000,2.7308 2.2138,4.9446 4.9446 4.9446c 2.7308,0.0000 4.9446,-2.2138 4.9446 -4.9446Z"/></g><g stroke-linejoin="miter" fill-opacity="0.0" fill="rgb(0,0,0)" stroke="rgb(0,0,0)" stroke-linecap="butt" stroke-miterlimit="10.0" stroke-opacity="1.0" stroke-width="1.7922099826020486"><path d="M 171.2135,495.1813 c 0.0000,-2.7308 -2.2138,-4.9446 -4.9446 -4.9446c -2.7308,-0.0000 -4.9446,2.2138 -4.9446 4.9446c -0.0000,2.7308 2.2138,4.9446 4.9446 4.9446c 2.7308,0.0000 4.9446,-2.2138 4.9446 -4.9446Z"/></g><g stroke-linejoin="miter" fill-opacity="0.0" fill="rgb(0,0,0)" stroke="rgb(0,0,0)" stroke-linecap="butt" stroke-miterlimit="10.0" stroke-opacity="1.0" stroke-width="1.7922099826020486"><path d="M 177.3496,496.1532 c 0.0000,-2.7308 -2.2138,-4.9446 -4.9446 -4.9446c -2.7308,-0.0000 -4.9446,2.2138 -4.9446 4.9446c -0.0000,2.7308 2.2138,4.9446 4.9446 4.9446c 2.7308,0.0000 4.9446,-2.2138 4.9446 -4.9446Z"/></g><g stroke-linejoin="miter" fill-opacity="0.0" fill="rgb(0,0,0)" stroke="rgb(0,0,0)" stroke-linecap="butt" stroke-miterlimit="10.0" stroke-opacity="1.0" stroke-width="1.7922099826020486"><path d="M 183.5346,496.7378 c 0.0000,-2.7308 -2.2138,-4.9446 -4.9446 -4.9446c -2.7308,-0.0000 -4.9446,2.2138 -4.9446 4.9446c -0.0000,2.7308 2.2138,4.9446 4.9446 4.9446c 2.7308,0.0000 4.9446,-2.2138 4.9446 -4.9446Z"/></g><g stroke-linejoin="miter" fill-opacity="0.0" fill="rgb(0,0,0)" stroke="rgb(0,0,0)" stroke-linecap="butt" stroke-miterlimit="10.0" stroke-opacity="1.0" stroke-width="1.7922099826020486"><path d="M 189.7441,496.9330 c 0.0000,-2.7308 -2.2138,-4.9446 -4.9446 -4.9446c -2.7308,-0.0000 -4.9446,2.2138 -4.9446 4.9446c -0.0000,2.7308 2.2138,4.9446 4.9446 4.9446c 2.7308,0.0000 4.9446,-2.2138 4.9446 -4.9446Z"/></g><g stroke-linejoin="miter" fill-opacity="0.0" fill="rgb(0,0,0)" stroke="rgb(0,0,0)" stroke-linecap="butt" stroke-miterlimit="10.0" stroke-opacity="1.0" stroke-width="1.7922099826020486"><path d="M 195.9536,496.7378 c 0.0000,-2.7308 -2.2138,-4.9446 -4.9446 -4.9446c -2.7308,-0.0000 -4.9446,2.2138 -4.9446 4.9446c -0.0000,2.7308 2.2138,4.9446 4.9446 4.9446c 2.7308,0.0000 4.9446,-2.2138 4.9446 -4.9446Z"/></g><g stroke-linejoin="miter" fill-opacity="0.0" fill="rgb(0,0,0)" stroke="rgb(0,0,0)" stroke-linecap="butt" stroke-miterlimit="10.0" stroke-opacity="1.0" stroke-width="1.7922099826020486"><path d="M 202.1386,496.1532 c 0.0000,-2.7308 -2.2138,-4.9446 -4.9446 -4.9446c -2.7308,-0.0000 -4.9446,2.2138 -4.9446 4.9446c -0.0000,2.7308 2.2138,4.9446 4.9446 4.9446c 2.7308,0.0000 4.9446,-2.2138 4.9446 -4.9446Z"/></g><g stroke-linejoin="miter" fill-opacity="0.0" fill="rgb(0,0,0)" stroke="rgb(0,0,0)" stroke-linecap="butt" stroke-miterlimit="10.0" stroke-opacity="1.0" stroke-width="1.7922099826020486"><path d="M 208.2747,495.1813 c 0.0000,-2.7308 -2.2138,-4.9446 -4.9446 -4.9446c -2.7308,-0.0000 -4.9446,2.2138 -4.9446 4.9446c -0.0000,2.7308 2.2138,4.9446 4.9446 4.9446c 2.7308,0.0000 4.9446,-2.2138 4.9446 -4.9446Z"/></g><g stroke-linejoin="miter" fill-opacity="0.0" fill="rgb(0,0,0)" stroke="rgb(0,0,0)" stroke-linecap="butt" stroke-miterlimit="10.0" stroke-opacity="1.0" stroke-width="1.7922099826020486"><path d="M 214.3376,493.8261 c 0.0000,-2.7308 -2.2138,-4.9446 -4.9446 -4.9446c -2.7308,-0.0000 -4.9446,2.2138 -4.9446 4.9446c -0.0000,2.7308 2.2138,4.9446 4.9446 4.9446c 2.7308,0.0000 4.9446,-2.2138 4.9446 -4.9446Z"/></g><g stroke-linejoin="miter" fill-opacity="0.0" fill="rgb(0,0,0)" stroke="rgb(0,0,0)" stroke-linecap="butt" stroke-miterlimit="10.0" stroke-opacity="1.0" stroke-width="1.7922099826020486"><path d="M 220.3035,492.0928 c 0.0000,-2.7308 -2.2138,-4.9446 -4.9446 -4.9446c -2.7308,-0.0000 -4.9446,2.2138 -4.9446 4.9446c -0.0000,2.7308 2.2138,4.9446 4.9446 4.9446c 2.7308,0.0000 4.9446,-2.2138 4.9446 -4.9446Z"/></g><g stroke-linejoin="miter" fill-opacity="0.0" fill="rgb(0,0,0)" stroke="rgb(0,0,0)" stroke-linecap="butt" stroke-miterlimit="10.0" stroke-opacity="1.0" stroke-width="1.7922099826020486"><path d="M 226.1488,489.9884 c 0.0000,-2.7308 -2.2138,-4.9446 -4.9446 -4.9446c -2.7308,-0.0000 -4.9446,2.2138 -4.9446 4.9446c -0.0000,2.7308 2.2138,4.9446 4.9446 4.9446c 2.7308,0.0000 4.9446,-2.2138 4.9446 -4.9446Z"/></g><g stroke-linejoin="miter" fill-opacity="0.0" fill="rgb(0,0,0)" stroke="rgb(0,0,0)" stroke-linecap="butt" stroke-miterlimit="10.0" stroke-opacity="1.0" stroke-width="1.7922099826020486"><path d="M 231.8504,487.5211 c 0.0000,-2.7308 -2.2138,-4.9446 -4.9446 -4.9446c -2.7308,-0.0000 -4.9446,2.2138 -4.9446 4.9446c -0.0000,2.7308 2.2138,4.9446 4.9446 4.9446c 2.7308,0.0000 4.9446,-2.2138 4.9446 -4.9446Z"/></g><g stroke-linejoin="miter" fill-opacity="0.0" fill="rgb(0,0,0)" stroke="rgb(0,0,0)" stroke-linecap="butt" stroke-miterlimit="10.0" stroke-opacity="1.0" stroke-width="1.7922099826020486"><path d="M 237.3858,484.7007 c 0.0000,-2.7308 -2.2138,-4.9446 -4.9446 -4.9446c -2.7308,-0.0000 -4.9446,2.2138 -4.9446 4.9446c -0.0000,2.7308 2.2138,4.9446 4.9446 4.9446c 2.7308,0.0000 4.9446,-2.2138 4.9446 -4.9446Z"/></g><g stroke-linejoin="miter" fill-opacity="0.0" fill="rgb(0,0,0)" stroke="rgb(0,0,0)" stroke-linecap="butt" stroke-miterlimit="10.0" stroke-opacity="1.0" stroke-width="1.7922099826020486"><path d="M 242.7332,481.5382 c 0.0000,-2.7308 -2.2138,-4.9446 -4.9446 -4.9446c -2.7308,-0.0000 -4.9446,2.2138 -4.9446 4.9446c -0.0000,2.7308 2.2138,4.9446 4.9446 4.9446c 2.7308,0.0000 4.9446,-2.2138 4.9446 -4.9446Z"/></g><g stroke-linejoin="miter" fill-opacity="0.0" fill="rgb(0,0,0)" stroke="rgb(0,0,0)" stroke-linecap="butt" stroke-miterlimit="10.0" stroke-opacity="1.0" stroke-width="1.7922099826020486"><path d="M 247.8715,478.0462 c 0.0000,-2.7308 -2.2138,-4.9446 -4.9446 -4.9446c -2.7308,-0.0000 -4.9446,2.2138 -4.9446 4.9446c -0.0000,2.7308 2.2138,4.9446 4.9446 4.9446c 2.7308,0.0000 4.9446,-2.2138 4.9446 -4.9446Z"/></g><g stroke-linejoin="miter" fill-opacity="0.0" fill="rgb(0,0,0)" stroke="rgb(0,0,0)" stroke-linecap="butt" stroke-miterlimit="10.0" stroke-opacity="1.0" stroke-width="1.7922099826020486"><path d="M 252.7804,474.2385 c 0.0000,-2.7308 -2.2138,-4.9446 -4.9446 -4.9446c -2.7308,-0.0000 -4.9446,2.2138 -4.9446 4.9446c -0.0000,2.7308 2.2138,4.9446 4.9446 4.9446c 2.7308,0.0000 4.9446,-2.2138 4.9446 -4.9446Z"/></g><g stroke-linejoin="miter" fill-opacity="0.0" fill="rgb(0,0,0)" stroke="rgb(0,0,0)" stroke-linecap="butt" stroke-miterlimit="10.0" stroke-opacity="1.0" stroke-width="1.7922099826020486"><path d="M 257.4405,470.1301 c 0.0000,-2.7308 -2.2138,-4.9446 -4.9446 -4.9446c -2.7308,-0.0000 -4.9446,2.2138 -4.9446 4.9446c -0.0000,2.7308 2.2138,4.9446 4.9446 4.9446c 2.7308,0.0000 4.9446,-2.2138 4.9446 -4.9446Z"/></g><g stroke-linejoin="miter" fill-opacity="0.0" fill="rgb(0,0,0)" stroke="rgb(0,0,0)" stroke-linecap="butt" stroke-miterlimit="10.0" stroke-opacity="1.0" stroke-width="1.7922099826020486"><path d="M 261.8335,465.7371 c 0.0000,-2.7308 -2.2138,-4.9446 -4.9446 -4.9446c -2.7308,-0.0000 -4.9446,2.2138 -4.9446 4.9446c -0.0000,2.7308 2.2138,4.9446 4.9446 4.9446c 2.7308,0.0000 4.9446,-2.2138 4.9446 -4.9446Z"/></g><g stroke-linejoin="miter" fill-opacity="0.0" fill="rgb(0,0,0)" stroke="rgb(0,0,0)" stroke-linecap="butt" stroke-miterlimit="10.0" stroke-opacity="1.0" stroke-width="1.7922099826020486"><path d="M 265.9419,461.0770 c 0.0000,-2.7308 -2.2138,-4.9446 -4.9446 -4.9446c -2.7308,-0.0000 -4.9446,2.2138 -4.9446 4.9446c -0.0000,2.7308 2.2138,4.9446 4.9446 4.9446c 2.7308,0.0000 4.9446,-2.2138 4.9446 -4.9446Z"/></g><g stroke-linejoin="miter" fill-opacity="0.0" fill="rgb(0,0,0)" stroke="rgb(0,0,0)" stroke-linecap="butt" stroke-miterlimit="10.0" stroke-opacity="1.0" stroke-width="1.7922099826020486"><path d="M 269.7497,456.1681 c 0.0000,-2.7308 -2.2138,-4.9446 -4.9446 -4.9446c -2.7308,-0.0000 -4.9446,2.2138 -4.9446 4.9446c -0.0000,2.7308 2.2138,4.9446 4.9446 4.9446c 2.7308,0.0000 4.9446,-2.2138 4.9446 -4.9446Z"/></g><g stroke-linejoin="miter" fill-opacity="0.0" fill="rgb(0,0,0)" stroke="rgb(0,0,0)" stroke-linecap="butt" stroke-miterlimit="10.0" stroke-opacity="1.0" stroke-width="1.7922099826020486"><path d="M 273.2416,451.0298 c 0.0000,-2.7308 -2.2138,-4.9446 -4.9446 -4.9446c -2.7308,-0.0000 -4.9446,2.2138 -4.9446 4.9446c -0.0000,2.7308 2.2138,4.9446 4.9446 4.9446c 2.7308,0.0000 4.9446,-2.2138 4.9446 -4.9446Z"/></g><g stroke-linejoin="miter" fill-opacity="0.0" fill="rgb(0,0,0)" stroke="rgb(0,0,0)" stroke-linecap="butt" stroke-miterlimit="10.0" stroke-opacity="1.0" stroke-width="1.7922099826020486"><path d="M 276.4041,445.6824 c 0.0000,-2.7308 -2.2138,-4.9446 -4.9446 -4.9446c -2.7308,-0.0000 -4.9446,2.2138 -4.9446 4.9446c -0.0000,2.7308 2.2138,4.9446 4.9446 4.9446c 2.7308,0.0000 4.9446,-2.2138 4.9446 -4.9446Z"/></g><g stroke-linejoin="miter" fill-opacity="0.0" fill="rgb(0,0,0)" stroke="rgb(0,0,0)" stroke-linecap="butt" stroke-miterlimit="10.0" stroke-opacity="1.0" stroke-width="1.7922099826020486"><path d="M 279.2245,440.1470 c 0.0000,-2.7308 -2.2138,-4.9446 -4.9446 -4.9446c -2.7308,-0.0000 -4.9446,2.2138 -4.9446 4.9446c -0.0000,2.7308 2.2138,4.9446 4.9446 4.9446c 2.7308,0.0000 4.9446,-2.2138 4.9446 -4.9446Z"/></g><g stroke-linejoin="miter" fill-opacity="0.0" fill="rgb(0,0,0)" stroke="rgb(0,0,0)" stroke-linecap="butt" stroke-miterlimit="10.0" stroke-opacity="1.0" stroke-width="1.7922099826020486"><path d="M 281.6918,434.4453 c 0.0000,-2.7308 -2.2138,-4.9446 -4.9446 -4.9446c -2.7308,-0.0000 -4.9446,2.2138 -4.9446 4.9446c -0.0000,2.7308 2.2138,4.9446 4.9446 4.9446c 2.7308,0.0000 4.9446,-2.2138 4.9446 -4.9446Z"/></g><g stroke-linejoin="miter" fill-opacity="0.0" fill="rgb(0,0,0)" stroke="rgb(0,0,0)" stroke-linecap="butt" stroke-miterlimit="10.0" stroke-opacity="1.0" stroke-width="1.7922099826020486"><path d="M 283.7963,428.6001 c 0.0000,-2.7308 -2.2138,-4.9446 -4.9446 -4.9446c -2.7308,-0.0000 -4.9446,2.2138 -4.9446 4.9446c -0.0000,2.7308 2.2138,4.9446 4.9446 4.9446c 2.7308,0.0000 4.9446,-2.2138 4.9446 -4.9446Z"/></g><g stroke-linejoin="miter" fill-opacity="0.0" fill="rgb(0,0,0)" stroke="rgb(0,0,0)" stroke-linecap="butt" stroke-miterlimit="10.0" stroke-opacity="1.0" stroke-width="1.7922099826020486"><path d="M 285.5295,422.6342 c 0.0000,-2.7308 -2.2138,-4.9446 -4.9446 -4.9446c -2.7308,-0.0000 -4.9446,2.2138 -4.9446 4.9446c -0.0000,2.7308 2.2138,4.9446 4.9446 4.9446c 2.7308,0.0000 4.9446,-2.2138 4.9446 -4.9446Z"/></g><g stroke-linejoin="miter" fill-opacity="0.0" fill="rgb(0,0,0)" stroke="rgb(0,0,0)" stroke-linecap="butt" stroke-miterlimit="10.0" stroke-opacity="1.0" stroke-width="1.7922099826020486"><path d="M 286.8848,416.5712 c 0.0000,-2.7308 -2.2138,-4.9446 -4.9446 -4.9446c -2.7308,-0.0000 -4.9446,2.2138 -4.9446 4.9446c -0.0000,2.7308 2.2138,4.9446 4.9446 4.9446c 2.7308,0.0000 4.9446,-2.2138 4.9446 -4.9446Z"/></g><g stroke-linejoin="miter" fill-opacity="0.0" fill="rgb(0,0,0)" stroke="rgb(0,0,0)" stroke-linecap="butt" stroke-miterlimit="10.0" stroke-opacity="1.0" stroke-width="1.7922099826020486"><path d="M 287.8566,410.4351 c 0.0000,-2.7308 -2.2138,-4.9446 -4.9446 -4.9446c -2.7308,-0.0000 -4.9446,2.2138 -4.9446 4.9446c -0.0000,2.7308 2.2138,4.9446 4.9446 4.9446c 2.7308,0.0000 4.9446,-2.2138 4.9446 -4.9446Z"/></g><g stroke-linejoin="miter" fill-opacity="0.0" fill="rgb(0,0,0)" stroke="rgb(0,0,0)" stroke-linecap="butt" stroke-miterlimit="10.0" stroke-opacity="1.0" stroke-width="1.7922099826020486"><path d="M 288.4413,404.2502 c 0.0000,-2.7308 -2.2138,-4.9446 -4.9446 -4.9446c -2.7308,-0.0000 -4.9446,2.2138 -4.9446 4.9446c -0.0000,2.7308 2.2138,4.9446 4.9446 4.9446c 2.7308,0.0000 4.9446,-2.2138 4.9446 -4.9446Z"/></g><g stroke-linejoin="miter" fill-opacity="0.0" fill="rgb(0,0,0)" stroke="rgb(0,0,0)" stroke-linecap="butt" stroke-miterlimit="10.0" stroke-opacity="1.0" stroke-width="1.7922099826020486"><path d="M 288.6364,398.0407 c 0.0000,-2.7308 -2.2138,-4.9446 -4.9446 -4.9446c -2.7308,-0.0000 -4.9446,2.2138 -4.9446 4.9446c -0.0000,2.7308 2.2138,4.9446 4.9446 4.9446c 2.7308,0.0000 4.9446,-2.2138 4.9446 -4.9446Z"/></g><g stroke-linejoin="miter" fill-opacity="0.0" fill="rgb(0,0,0)" stroke="rgb(0,0,0)" stroke-linecap="butt" stroke-miterlimit="10.0" stroke-opacity="1.0" stroke-width="1.7922099826020486"><path d="M 288.6364,398.0407 c 0.0000,-2.7308 -2.2138,-4.9446 -4.9446 -4.9446c -2.7308,-0.0000 -4.9446,2.2138 -4.9446 4.9446c -0.0000,2.7308 2.2138,4.9446 4.9446 4.9446c 2.7308,0.0000 4.9446,-2.2138 4.9446 -4.9446Z"/></g><g stroke-linejoin="miter" fill-opacity="0.0" fill="rgb(0,0,0)" stroke="rgb(0,0,0)" stroke-linecap="butt" stroke-miterlimit="10.0" stroke-opacity="1.0" stroke-width="1.7922099826020486"><path d="M 311.9662,383.0704 c 0.0000,-2.7308 -2.2138,-4.9446 -4.9446 -4.9446c -2.7308,-0.0000 -4.9446,2.2138 -4.9446 4.9446c -0.0000,2.7308 2.2138,4.9446 4.9446 4.9446c 2.7308,0.0000 4.9446,-2.2138 4.9446 -4.9446Z"/></g><g stroke-linejoin="miter" fill-opacity="0.0" fill="rgb(0,0,0)" stroke="rgb(0,0,0)" stroke-linecap="butt" stroke-miterlimit="10.0" stroke-opacity="1.0" stroke-width="1.7922099826020486"><path d="M 333.1138,365.3873 c 0.0000,-2.7308 -2.2138,-4.9446 -4.9446 -4.9446c -2.7308,-0.0000 -4.9446,2.2138 -4.9446 4.9446c -0.0000,2.7308 2.2138,4.9446 4.9446 4.9446c 2.7308,0.0000 4.9446,-2.2138 4.9446 -4.9446Z"/></g><g stroke-linejoin="miter" fill-opacity="0.0" fill="rgb(0,0,0)" stroke="rgb(0,0,0)" stroke-linecap="butt" stroke-miterlimit="10.0" stroke-opacity="1.0" stroke-width="1.7922099826020486"><path d="M 351.7690,345.3009 c 0.0000,-2.7308 -2.2138,-4.9446 -4.9446 -4.9446c -2.7308,-0.0000 -4.9446,2.2138 -4.9446 4.9446c -0.0000,2.7308 2.2138,4.9446 4.9446 4.9446c 2.7308,0.0000 4.9446,-2.2138 4.9446 -4.9446Z"/></g><g stroke-linejoin="miter" fill-opacity="0.0" fill="rgb(0,0,0)" stroke="rgb(0,0,0)" stroke-linecap="butt" stroke-miterlimit="10.0" stroke-opacity="1.0" stroke-width="1.7922099826020486"><path d="M 367.6645,323.1553 c 0.0000,-2.7308 -2.2138,-4.9446 -4.9446 -4.9446c -2.7308,-0.0000 -4.9446,2.2138 -4.9446 4.9446c -0.0000,2.7308 2.2138,4.9446 4.9446 4.9446c 2.7308,0.0000 4.9446,-2.2138 4.9446 -4.9446Z"/></g><g stroke-linejoin="miter" fill-opacity="0.0" fill="rgb(0,0,0)" stroke="rgb(0,0,0)" stroke-linecap="butt" stroke-miterlimit="10.0" stroke-opacity="1.0" stroke-width="1.7922099826020486"><path d="M 380.5800,299.3237 c 0.0000,-2.7308 -2.2138,-4.9446 -4.9446 -4.9446c -2.7308,-0.0000 -4.9446,2.2138 -4.9446 4.9446c -0.0000,2.7308 2.2138,4.9446 4.9446 4.9446c 2.7308,0.0000 4.9446,-2.2138 4.9446 -4.9446Z"/></g><g stroke-linejoin="miter" fill-opacity="0.0" fill="rgb(0,0,0)" stroke="rgb(0,0,0)" stroke-linecap="butt" stroke-miterlimit="10.0" stroke-opacity="1.0" stroke-width="1.7922099826020486"><path d="M 390.3448,274.2016 c 0.0000,-2.7308 -2.2138,-4.9446 -4.9446 -4.9446c -2.7308,-0.0000 -4.9446,2.2138 -4.9446 4.9446c -0.0000,2.7308 2.2138,4.9446 4.9446 4.9446c 2.7308,0.0000 4.9446,-2.2138 4.9446 -4.9446Z"/></g><g stroke-linejoin="miter" fill-opacity="0.0" fill="rgb(0,0,0)" stroke="rgb(0,0,0)" stroke-linecap="butt" stroke-miterlimit="10.0" stroke-opacity="1.0" stroke-width="1.7922099826020486"><path d="M 396.8400,248.2009 c 0.0000,-2.7308 -2.2138,-4.9446 -4.9446 -4.9446c -2.7308,-0.0000 -4.9446,2.2138 -4.9446 4.9446c -0.0000,2.7308 2.2138,4.9446 4.9446 4.9446c 2.7308,0.0000 4.9446,-2.2138 4.9446 -4.9446Z"/></g><g stroke-linejoin="miter" fill-opacity="0.0" fill="rgb(0,0,0)" stroke="rgb(0,0,0)" stroke-linecap="butt" stroke-miterlimit="10.0" stroke-opacity="1.0" stroke-width="1.7922099826020486"><path d="M 400.0000,221.7426 c 0.0000,-2.7308 -2.2138,-4.9446 -4.9446 -4.9446c -2.7308,-0.0000 -4.9446,2.2138 -4.9446 4.9446c -0.0000,2.7308 2.2138,4.9446 4.9446 4.9446c 2.7308,0.0000 4.9446,-2.2138 4.9446 -4.9446Z"/></g><g stroke-linejoin="miter" fill-opacity="0.0" fill="rgb(0,0,0)" stroke="rgb(0,0,0)" stroke-linecap="butt" stroke-miterlimit="10.0" stroke-opacity="1.0" stroke-width="1.7922099826020486"><path d="M 399.8130,195.2502 c 0.0000,-2.7308 -2.2138,-4.9446 -4.9446 -4.9446c -2.7308,-0.0000 -4.9446,2.2138 -4.9446 4.9446c -0.0000,2.7308 2.2138,4.9446 4.9446 4.9446c 2.7308,0.0000 4.9446,-2.2138 4.9446 -4.9446Z"/></g><g stroke-linejoin="miter" fill-opacity="0.0" fill="rgb(0,0,0)" stroke="rgb(0,0,0)" stroke-linecap="butt" stroke-miterlimit="10.0" stroke-opacity="1.0" stroke-width="1.7922099826020486"><path d="M 396.3204,169.1431 c 0.0000,-2.7308 -2.2138,-4.9446 -4.9446 -4.9446c -2.7308,-0.0000 -4.9446,2.2138 -4.9446 4.9446c -0.0000,2.7308 2.2138,4.9446 4.9446 4.9446c 2.7308,0.0000 4.9446,-2.2138 4.9446 -4.9446Z"/></g><g stroke-linejoin="miter" fill-opacity="0.0" fill="rgb(0,0,0)" stroke="rgb(0,0,0)" stroke-linecap="butt" stroke-miterlimit="10.0" stroke-opacity="1.0" stroke-width="1.7922099826020486"><path d="M 389.6156,143.8297 c 0.0000,-2.7308 -2.2138,-4.9446 -4.9446 -4.9446c -2.7308,-0.0000 -4.9446,2.2138 -4.9446 4.9446c -0.0000,2.7308 2.2138,4.9446 4.9446 4.9446c 2.7308,0.0000 4.9446,-2.2138 4.9446 -4.9446Z"/></g><g stroke-linejoin="miter" fill-opacity="0.0" fill="rgb(0,0,0)" stroke="rgb(0,0,0)" stroke-linecap="butt" stroke-miterlimit="10.0" stroke-opacity="1.0" stroke-width="1.7922099826020486"><path d="M 379.8420,119.7010 c 0.0000,-2.7308 -2.2138,-4.9446 -4.9446 -4.9446c -2.7308,-0.0000 -4.9446,2.2138 -4.9446 4.9446c -0.0000,2.7308 2.2138,4.9446 4.9446 4.9446c 2.7308,0.0000 4.9446,-2.2138 4.9446 -4.9446Z"/></g><g stroke-linejoin="miter" fill-opacity="0.0" fill="rgb(0,0,0)" stroke="rgb(0,0,0)" stroke-linecap="butt" stroke-miterlimit="10.0" stroke-opacity="1.0" stroke-width="1.7922099826020486"><path d="M 367.1900,97.1249 c 0.0000,-2.7308 -2.2138,-4.9446 -4.9446 -4.9446c -2.7308,-0.0000 -4.9446,2.2138 -4.9446 4.9446c -0.0000,2.7308 2.2138,4.9446 4.9446 4.9446c 2.7308,0.0000 4.9446,-2.2138 4.9446 -4.9446Z"/></g><g stroke-linejoin="miter" fill-opacity="0.0" fill="rgb(0,0,0)" stroke="rgb(0,0,0)" stroke-linecap="butt" stroke-miterlimit="10.0" stroke-opacity="1.0" stroke-width="1.7922099826020486"><path d="M 351.8935,76.4401 c 0.0000,-2.7308 -2.2138,-4.9446 -4.9446 -4.9446c -2.7308,-0.0000 -4.9446,2.2138 -4.9446 4.9446c -0.0000,2.7308 2.2138,4.9446 4.9446 4.9446c 2.7308,0.0000 4.9446,-2.2138 4.9446 -4.9446Z"/></g><g stroke-linejoin="miter" fill-opacity="0.0" fill="rgb(0,0,0)" stroke="rgb(0,0,0)" stroke-linecap="butt" stroke-miterlimit="10.0" stroke-opacity="1.0" stroke-width="1.7922099826020486"><path d="M 334.2257,57.9514 c 0.0000,-2.7308 -2.2138,-4.9446 -4.9446 -4.9446c -2.7308,-0.0000 -4.9446,2.2138 -4.9446 4.9446c -0.0000,2.7308 2.2138,4.9446 4.9446 4.9446c 2.7308,0.0000 4.9446,-2.2138 4.9446 -4.9446Z"/></g><g stroke-linejoin="miter" fill-opacity="0.0" fill="rgb(0,0,0)" stroke="rgb(0,0,0)" stroke-linecap="butt" stroke-miterlimit="10.0" stroke-opacity="1.0" stroke-width="1.7922099826020486"><path d="M 314.4945,41.9254 c 0.0000,-2.7308 -2.2138,-4.9446 -4.9446 -4.9446c -2.7308,-0.0000 -4.9446,2.2138 -4.9446 4.9446c -0.0000,2.7308 2.2138,4.9446 4.9446 4.9446c 2.7308,0.0000 4.9446,-2.2138 4.9446 -4.9446Z"/></g><g stroke-linejoin="miter" fill-opacity="0.0" fill="rgb(0,0,0)" stroke="rgb(0,0,0)" stroke-linecap="butt" stroke-miterlimit="10.0" stroke-opacity="1.0" stroke-width="1.7922099826020486"><path d="M 293.0365,28.5859 c 0.0000,-2.7308 -2.2138,-4.9446 -4.9446 -4.9446c -2.7308,-0.0000 -4.9446,2.2138 -4.9446 4.9446c -0.0000,2.7308 2.2138,4.9446 4.9446 4.9446c 2.7308,0.0000 4.9446,-2.2138 4.9446 -4.9446Z"/></g><g stroke-linejoin="miter" fill-opacity="0.0" fill="rgb(0,0,0)" stroke="rgb(0,0,0)" stroke-linecap="butt" stroke-miterlimit="10.0" stroke-opacity="1.0" stroke-width="1.7922099826020486"><path d="M 270.2120,18.1117 c 0.0000,-2.7308 -2.2138,-4.9446 -4.9446 -4.9446c -2.7308,-0.0000 -4.9446,2.2138 -4.9446 4.9446c -0.0000,2.7308 2.2138,4.9446 4.9446 4.9446c 2.7308,0.0000 4.9446,-2.2138 4.9446 -4.9446Z"/></g><g stroke-linejoin="miter" fill-opacity="0.0" fill="rgb(0,0,0)" stroke="rgb(0,0,0)" stroke-linecap="butt" stroke-miterlimit="10.0" stroke-opacity="1.0" stroke-width="1.7922099826020486"><path d="M 246.3989,10.6339 c 0.0000,-2.7308 -2.2138,-4.9446 -4.9446 -4.9446c -2.7308,-0.0000 -4.9446,2.2138 -4.9446 4.9446c -0.0000,2.7308 2.2138,4.9446 4.9446 4.9446c 2.7308,0.0000 4.9446,-2.2138 4.9446 -4.9446Z"/></g><g stroke-linejoin="miter" fill-opacity="0.0" fill="rgb(0,0,0)" stroke="rgb(0,0,0)" stroke-linecap="butt" stroke-miterlimit="10.0" stroke-opacity="1.0" stroke-width="1.7922099826020486"><path d="M 221.9858,6.2342 c 0.0000,-2.7308 -2.2138,-4.9446 -4.9446 -4.9446c -2.7308,-0.0000 -4.9446,2.2138 -4.9446 4.9446c -0.0000,2.7308 2.2138,4.9446 4.9446 4.9446c 2.7308,0.0000 4.9446,-2.2138 4.9446 -4.9446Z"/></g><g stroke-linejoin="miter" fill-opacity="0.0" fill="rgb(0,0,0)" stroke="rgb(0,0,0)" stroke-linecap="butt" stroke-miterlimit="10.0" stroke-opacity="1.0" stroke-width="1.7922099826020486"><path d="M 197.3665,4.9446 c 0.0000,-2.7308 -2.2138,-4.9446 -4.9446 -4.9446c -2.7308,-0.0000 -4.9446,2.2138 -4.9446 4.9446c -0.0000,2.7308 2.2138,4.9446 4.9446 4.9446c 2.7308,0.0000 4.9446,-2.2138 4.9446 -4.9446Z"/></g><g stroke-linejoin="miter" fill-opacity="0.0" fill="rgb(0,0,0)" stroke="rgb(0,0,0)" stroke-linecap="butt" stroke-miterlimit="10.0" stroke-opacity="1.0" stroke-width="1.7922099826020486"><path d="M 172.9332,6.7472 c 0.0000,-2.7308 -2.2138,-4.9446 -4.9446 -4.9446c -2.7308,-0.0000 -4.9446,2.2138 -4.9446 4.9446c -0.0000,2.7308 2.2138,4.9446 4.9446 4.9446c 2.7308,0.0000 4.9446,-2.2138 4.9446 -4.9446Z"/></g><g stroke-linejoin="miter" fill-opacity="0.0" fill="rgb(0,0,0)" stroke="rgb(0,0,0)" stroke-linecap="butt" stroke-miterlimit="10.0" stroke-opacity="1.0" stroke-width="1.7922099826020486"><path d="M 149.0702,11.5749 c 0.0000,-2.7308 -2.2138,-4.9446 -4.9446 -4.9446c -2.7308,-0.0000 -4.9446,2.2138 -4.9446 4.9446c -0.0000,2.7308 2.2138,4.9446 4.9446 4.9446c 2.7308,0.0000 4.9446,-2.2138 4.9446 -4.9446Z"/></g><g stroke-linejoin="miter" fill-opacity="0.0" fill="rgb(0,0,0)" stroke="rgb(0,0,0)" stroke-linecap="butt" stroke-miterlimit="10.0" stroke-opacity="1.0" stroke-width="1.7922099826020486"><path d="M 126.1483,19.3137 c 0.0000,-2.7308 -2.2138,-4.9446 -4.9446 -4.9446c -2.7308,-0.0000 -4.9446,2.2138 -4.9446 4.9446c -0.0000,2.7308 2.2138,4.9446 4.9446 4.9446c 2.7308,0.0000 4.9446,-2.2138 4.9446 -4.9446Z"/></g><g stroke-linejoin="miter" fill-opacity="0.0" fill="rgb(0,0,0)" stroke="rgb(0,0,0)" stroke-linecap="butt" stroke-miterlimit="10.0" stroke-opacity="1.0" stroke-width="1.7922099826020486"><path d="M 104.5183,29.8045 c 0.0000,-2.7308 -2.2138,-4.9446 -4.9446 -4.9446c -2.7308,-0.0000 -4.9446,2.2138 -4.9446 4.9446c -0.0000,2.7308 2.2138,4.9446 4.9446 4.9446c 2.7308,0.0000 4.9446,-2.2138 4.9446 -4.9446Z"/></g><g stroke-linejoin="miter" fill-opacity="0.0" fill="rgb(0,0,0)" stroke="rgb(0,0,0)" stroke-linecap="butt" stroke-miterlimit="10.0" stroke-opacity="1.0" stroke-width="1.7922099826020486"><path d="M 84.5065,42.8464 c 0.0000,-2.7308 -2.2138,-4.9446 -4.9446 -4.9446c -2.7308,-0.0000 -4.9446,2.2138 -4.9446 4.9446c -0.0000,2.7308 2.2138,4.9446 4.9446 4.9446c 2.7308,0.0000 4.9446,-2.2138 4.9446 -4.9446Z"/></g><g stroke-linejoin="miter" fill-opacity="0.0" fill="rgb(0,0,0)" stroke="rgb(0,0,0)" stroke-linecap="butt" stroke-miterlimit="10.0" stroke-opacity="1.0" stroke-width="1.7922099826020486"><path d="M 66.4091,58.2004 c 0.0000,-2.7308 -2.2138,-4.9446 -4.9446 -4.9446c -2.7308,-0.0000 -4.9446,2.2138 -4.9446 4.9446c -0.0000,2.7308 2.2138,4.9446 4.9446 4.9446c 2.7308,0.0000 4.9446,-2.2138 4.9446 -4.9446Z"/></g><g stroke-linejoin="miter" fill-opacity="0.0" fill="rgb(0,0,0)" stroke="rgb(0,0,0)" stroke-linecap="butt" stroke-miterlimit="10.0" stroke-opacity="1.0" stroke-width="1.7922099826020486"><path d="M 50.4881,75.5938 c 0.0000,-2.7308 -2.2138,-4.9446 -4.9446 -4.9446c -2.7308,-0.0000 -4.9446,2.2138 -4.9446 4.9446c -0.0000,2.7308 2.2138,4.9446 4.9446 4.9446c 2.7308,0.0000 4.9446,-2.2138 4.9446 -4.9446Z"/></g><g stroke-linejoin="miter" fill-opacity="0.0" fill="rgb(0,0,0)" stroke="rgb(0,0,0)" stroke-linecap="butt" stroke-miterlimit="10.0" stroke-opacity="1.0" stroke-width="1.7922099826020486"><path d="M 36.9676,94.7250 c 0.0000,-2.7308 -2.2138,-4.9446 -4.9446 -4.9446c -2.7308,-0.0000 -4.9446,2.2138 -4.9446 4.9446c -0.0000,2.7308 2.2138,4.9446 4.9446 4.9446c 2.7308,0.0000 4.9446,-2.2138 4.9446 -4.9446Z"/></g><g stroke-linejoin="miter" fill-opacity="0.0" fill="rgb(0,0,0)" stroke="rgb(0,0,0)" stroke-linecap="butt" stroke-miterlimit="10.0" stroke-opacity="1.0" stroke-width="1.7922099826020486"><path d="M 26.0306,115.2683 c 0.0000,-2.7308 -2.2138,-4.9446 -4.9446 -4.9446c -2.7308,-0.0000 -4.9446,2.2138 -4.9446 4.9446c -0.0000,2.7308 2.2138,4.9446 4.9446 4.9446c 2.7308,0.0000 4.9446,-2.2138 4.9446 -4.9446Z"/></g><g stroke-linejoin="miter" fill-opacity="0.0" fill="rgb(0,0,0)" stroke="rgb(0,0,0)" stroke-linecap="butt" stroke-miterlimit="10.0" stroke-opacity="1.0" stroke-width="1.7922099826020486"><path d="M 17.8167,136.8799 c 0.0000,-2.7308 -2.2138,-4.9446 -4.9446 -4.9446c -2.7308,-0.0000 -4.9446,2.2138 -4.9446 4.9446c -0.0000,2.7308 2.2138,4.9446 4.9446 4.9446c 2.7308,0.0000 4.9446,-2.2138 4.9446 -4.9446Z"/></g><g stroke-linejoin="miter" fill-opacity="0.0" fill="rgb(0,0,0)" stroke="rgb(0,0,0)" stroke-linecap="butt" stroke-miterlimit="10.0" stroke-opacity="1.0" stroke-width="1.7922099826020486"><path d="M 12.4202,159.2036 c 0.0000,-2.7308 -2.2138,-4.9446 -4.9446 -4.9446c -2.7308,-0.0000 -4.9446,2.2138 -4.9446 4.9446c -0.0000,2.7308 2.2138,4.9446 4.9446 4.9446c 2.7308,0.0000 4.9446,-2.2138 4.9446 -4.9446Z"/></g><g stroke-linejoin="miter" fill-opacity="0.0" fill="rgb(0,0,0)" stroke="rgb(0,0,0)" stroke-linecap="butt" stroke-miterlimit="10.0" stroke-opacity="1.0" stroke-width="1.7922099826020486"><path d="M 9.8892,181.8762 c 0.0000,-2.7308 -2.2138,-4.9446 -4.9446 -4.9446c -2.7308,-0.0000 -4.9446,2.2138 -4.9446 4.9446c -0.0000,2.7308 2.2138,4.9446 4.9446 4.9446c 2.7308,0.0000 4.9446,-2.2138 4.9446 -4.9446Z"/></g><g stroke-linejoin="miter" fill-opacity="0.0" fill="rgb(0,0,0)" stroke="rgb(0,0,0)" stroke-linecap="butt" stroke-miterlimit="10.0" stroke-opacity="1.0" stroke-width="1.7922099826020486"><path d="M 10.2259,204.5338 c 0.0000,-2.7308 -2.2138,-4.9446 -4.9446 -4.9446c -2.7308,-0.0000 -4.9446,2.2138 -4.9446 4.9446c -0.0000,2.7308 2.2138,4.9446 4.9446 4.9446c 2.7308,0.0000 4.9446,-2.2138 4.9446 -4.9446Z"/></g><g stroke-linejoin="miter" fill-opacity="0.0" fill="rgb(0,0,0)" stroke="rgb(0,0,0)" stroke-linecap="butt" stroke-miterlimit="10.0" stroke-opacity="1.0" stroke-width="1.7922099826020486"><path d="M 13.3863,226.8176 c 0.0000,-2.7308 -2.2138,-4.9446 -4.9446 -4.9446c -2.7308,-0.0000 -4.9446,2.2138 -4.9446 4.9446c -0.0000,2.7308 2.2138,4.9446 4.9446 4.9446c 2.7308,0.0000 4.9446,-2.2138 4.9446 -4.9446Z"/></g><g stroke-linejoin="miter" fill-opacity="0.0" fill="rgb(0,0,0)" stroke="rgb(0,0,0)" stroke-linecap="butt" stroke-miterlimit="10.0" stroke-opacity="1.0" stroke-width="1.7922099826020486"><path d="M 19.2824,248.3795 c 0.0000,-2.7308 -2.2138,-4.9446 -4.9446 -4.9446c -2.7308,-0.0000 -4.9446,2.2138 -4.9446 4.9446c -0.0000,2.7308 2.2138,4.9446 4.9446 4.9446c 2.7308,0.0000 4.9446,-2.2138 4.9446 -4.9446Z"/></g><g stroke-linejoin="miter" fill-opacity="0.0" fill="rgb(0,0,0)" stroke="rgb(0,0,0)" stroke-linecap="butt" stroke-miterlimit="10.0" stroke-opacity="1.0" stroke-width="1.7922099826020486"><path d="M 27.7835,268.8876 c 0.0000,-2.7308 -2.2138,-4.9446 -4.9446 -4.9446c -2.7308,-0.0000 -4.9446,2.2138 -4.9446 4.9446c -0.0000,2.7308 2.2138,4.9446 4.9446 4.9446c 2.7308,0.0000 4.9446,-2.2138 4.9446 -4.9446Z"/></g><g stroke-linejoin="miter" fill-opacity="0.0" fill="rgb(0,0,0)" stroke="rgb(0,0,0)" stroke-linecap="butt" stroke-miterlimit="10.0" stroke-opacity="1.0" stroke-width="1.7922099826020486"><path d="M 38.7193,288.0312 c 0.0000,-2.7308 -2.2138,-4.9446 -4.9446 -4.9446c -2.7308,-0.0000 -4.9446,2.2138 -4.9446 4.9446c -0.0000,2.7308 2.2138,4.9446 4.9446 4.9446c 2.7308,0.0000 4.9446,-2.2138 4.9446 -4.9446Z"/></g><g stroke-linejoin="miter" fill-opacity="0.0" fill="rgb(0,0,0)" stroke="rgb(0,0,0)" stroke-linecap="butt" stroke-miterlimit="10.0" stroke-opacity="1.0" stroke-width="1.7922099826020486"><path d="M 51.8828,305.5257 c 0.0000,-2.7308 -2.2138,-4.9446 -4.9446 -4.9446c -2.7308,-0.0000 -4.9446,2.2138 -4.9446 4.9446c -0.0000,2.7308 2.2138,4.9446 4.9446 4.9446c 2.7308,0.0000 4.9446,-2.2138 4.9446 -4.9446Z"/></g><g stroke-linejoin="miter" fill-opacity="0.0" fill="rgb(0,0,0)" stroke="rgb(0,0,0)" stroke-linecap="butt" stroke-miterlimit="10.0" stroke-opacity="1.0" stroke-width="1.7922099826020486"><path d="M 67.0346,321.1164 c 0.0000,-2.7308 -2.2138,-4.9446 -4.9446 -4.9446c -2.7308,-0.0000 -4.9446,2.2138 -4.9446 4.9446c -0.0000,2.7308 2.2138,4.9446 4.9446 4.9446c 2.7308,0.0000 4.9446,-2.2138 4.9446 -4.9446Z"/></g><g stroke-linejoin="miter" fill-opacity="0.0" fill="rgb(0,0,0)" stroke="rgb(0,0,0)" stroke-linecap="butt" stroke-miterlimit="10.0" stroke-opacity="1.0" stroke-width="1.7922099826020486"><path d="M 83.9065,334.5828 c 0.0000,-2.7308 -2.2138,-4.9446 -4.9446 -4.9446c -2.7308,-0.0000 -4.9446,2.2138 -4.9446 4.9446c -0.0000,2.7308 2.2138,4.9446 4.9446 4.9446c 2.7308,0.0000 4.9446,-2.2138 4.9446 -4.9446Z"/></g><g stroke-linejoin="miter" fill-opacity="0.0" fill="rgb(0,0,0)" stroke="rgb(0,0,0)" stroke-linecap="butt" stroke-miterlimit="10.0" stroke-opacity="1.0" stroke-width="1.7922099826020486"><path d="M 102.2069,345.7412 c 0.0000,-2.7308 -2.2138,-4.9446 -4.9446 -4.9446c -2.7308,-0.0000 -4.9446,2.2138 -4.9446 4.9446c -0.0000,2.7308 2.2138,4.9446 4.9446 4.9446c 2.7308,0.0000 4.9446,-2.2138 4.9446 -4.9446Z"/></g><g stroke-linejoin="miter" fill-opacity="0.0" fill="rgb(0,0,0)" stroke="rgb(0,0,0)" stroke-linecap="butt" stroke-miterlimit="10.0" stroke-opacity="1.0" stroke-width="1.7922099826020486"><path d="M 121.6253,354.4472 c 0.0000,-2.7308 -2.2138,-4.9446 -4.9446 -4.9446c -2.7308,-0.0000 -4.9446,2.2138 -4.9446 4.9446c -0.0000,2.7308 2.2138,4.9446 4.9446 4.9446c 2.7308,0.0000 4.9446,-2.2138 4.9446 -4.9446Z"/></g><g stroke-linejoin="miter" fill-opacity="0.0" fill="rgb(0,0,0)" stroke="rgb(0,0,0)" stroke-linecap="butt" stroke-miterlimit="10.0" stroke-opacity="1.0" stroke-width="1.7922099826020486"><path d="M 141.8376,360.5977 c 0.0000,-2.7308 -2.2138,-4.9446 -4.9446 -4.9446c -2.7308,-0.0000 -4.9446,2.2138 -4.9446 4.9446c -0.0000,2.7308 2.2138,4.9446 4.9446 4.9446c 2.7308,0.0000 4.9446,-2.2138 4.9446 -4.9446Z"/></g><g stroke-linejoin="miter" fill-opacity="0.0" fill="rgb(0,0,0)" stroke="rgb(0,0,0)" stroke-linecap="butt" stroke-miterlimit="10.0" stroke-opacity="1.0" stroke-width="1.7922099826020486"><path d="M 162.5119,364.1318 c 0.0000,-2.7308 -2.2138,-4.9446 -4.9446 -4.9446c -2.7308,-0.0000 -4.9446,2.2138 -4.9446 4.9446c -0.0000,2.7308 2.2138,4.9446 4.9446 4.9446c 2.7308,0.0000 4.9446,-2.2138 4.9446 -4.9446Z"/></g><g stroke-linejoin="miter" fill-opacity="0.0" fill="rgb(0,0,0)" stroke="rgb(0,0,0)" stroke-linecap="butt" stroke-miterlimit="10.0" stroke-opacity="1.0" stroke-width="1.7922099826020486"><path d="M 183.3134,365.0312 c 0.0000,-2.7308 -2.2138,-4.9446 -4.9446 -4.9446c -2.7308,-0.0000 -4.9446,2.2138 -4.9446 4.9446c -0.0000,2.7308 2.2138,4.9446 4.9446 4.9446c 2.7308,0.0000 4.9446,-2.2138 4.9446 -4.9446Z"/></g><g stroke-linejoin="miter" fill-opacity="0.0" fill="rgb(0,0,0)" stroke="rgb(0,0,0)" stroke-linecap="butt" stroke-miterlimit="10.0" stroke-opacity="1.0" stroke-width="1.7922099826020486"><path d="M 203.9101,363.3201 c 0.0000,-2.7308 -2.2138,-4.9446 -4.9446 -4.9446c -2.7308,-0.0000 -4.9446,2.2138 -4.9446 4.9446c -0.0000,2.7308 2.2138,4.9446 4.9446 4.9446c 2.7308,0.0000 4.9446,-2.2138 4.9446 -4.9446Z"/></g><g stroke-linejoin="miter" fill-opacity="0.0" fill="rgb(0,0,0)" stroke="rgb(0,0,0)" stroke-linecap="butt" stroke-miterlimit="10.0" stroke-opacity="1.0" stroke-width="1.7922099826020486"><path d="M 223.9782,359.0639 c 0.0000,-2.7308 -2.2138,-4.9446 -4.9446 -4.9446c -2.7308,-0.0000 -4.9446,2.2138 -4.9446 4.9446c -0.0000,2.7308 2.2138,4.9446 4.9446 4.9446c 2.7308,0.0000 4.9446,-2.2138 4.9446 -4.9446Z"/></g><g stroke-linejoin="miter" fill-opacity="0.0" fill="rgb(0,0,0)" stroke="rgb(0,0,0)" stroke-linecap="butt" stroke-miterlimit="10.0" stroke-opacity="1.0" stroke-width="1.7922099826020486"><path d="M 243.2068,352.3677 c 0.0000,-2.7308 -2.2138,-4.9446 -4.9446 -4.9446c -2.7308,-0.0000 -4.9446,2.2138 -4.9446 4.9446c -0.0000,2.7308 2.2138,4.9446 4.9446 4.9446c 2.7308,0.0000 4.9446,-2.2138 4.9446 -4.9446Z"/></g><g stroke-linejoin="miter" fill-opacity="0.0" fill="rgb(0,0,0)" stroke="rgb(0,0,0)" stroke-linecap="butt" stroke-miterlimit="10.0" stroke-opacity="1.0" stroke-width="1.7922099826020486"><path d="M 261.3032,343.3743 c 0.0000,-2.7308 -2.2138,-4.9446 -4.9446 -4.9446c -2.7308,-0.0000 -4.9446,2.2138 -4.9446 4.9446c -0.0000,2.7308 2.2138,4.9446 4.9446 4.9446c 2.7308,0.0000 4.9446,-2.2138 4.9446 -4.9446Z"/></g><g stroke-linejoin="miter" fill-opacity="0.0" fill="rgb(0,0,0)" stroke="rgb(0,0,0)" stroke-linecap="butt" stroke-miterlimit="10.0" stroke-opacity="1.0" stroke-width="1.7922099826020486"><path d="M 277.9971,332.2609 c 0.0000,-2.7308 -2.2138,-4.9446 -4.9446 -4.9446c -2.7308,-0.0000 -4.9446,2.2138 -4.9446 4.9446c -0.0000,2.7308 2.2138,4.9446 4.9446 4.9446c 2.7308,0.0000 4.9446,-2.2138 4.9446 -4.9446Z"/></g><g stroke-linejoin="miter" fill-opacity="0.0" fill="rgb(0,0,0)" stroke="rgb(0,0,0)" stroke-linecap="butt" stroke-miterlimit="10.0" stroke-opacity="1.0" stroke-width="1.7922099826020486"><path d="M 293.0444,319.2359 c 0.0000,-2.7308 -2.2138,-4.9446 -4.9446 -4.9446c -2.7308,-0.0000 -4.9446,2.2138 -4.9446 4.9446c -0.0000,2.7308 2.2138,4.9446 4.9446 4.9446c 2.7308,0.0000 4.9446,-2.2138 4.9446 -4.9446Z"/></g><g stroke-linejoin="miter" fill-opacity="0.0" fill="rgb(0,0,0)" stroke="rgb(0,0,0)" stroke-linecap="butt" stroke-miterlimit="10.0" stroke-opacity="1.0" stroke-width="1.7922099826020486"><path d="M 306.2312,304.5354 c 0.0000,-2.7308 -2.2138,-4.9446 -4.9446 -4.9446c -2.7308,-0.0000 -4.9446,2.2138 -4.9446 4.9446c -0.0000,2.7308 2.2138,4.9446 4.9446 4.9446c 2.7308,0.0000 4.9446,-2.2138 4.9446 -4.9446Z"/></g><g stroke-linejoin="miter" fill-opacity="0.0" fill="rgb(0,0,0)" stroke="rgb(0,0,0)" stroke-linecap="butt" stroke-miterlimit="10.0" stroke-opacity="1.0" stroke-width="1.7922099826020486"><path d="M 317.3766,288.4187 c 0.0000,-2.7308 -2.2138,-4.9446 -4.9446 -4.9446c -2.7308,-0.0000 -4.9446,2.2138 -4.9446 4.9446c -0.0000,2.7308 2.2138,4.9446 4.9446 4.9446c 2.7308,0.0000 4.9446,-2.2138 4.9446 -4.9446Z"/></g><g stroke-linejoin="miter" fill-opacity="0.0" fill="rgb(0,0,0)" stroke="rgb(0,0,0)" stroke-linecap="butt" stroke-miterlimit="10.0" stroke-opacity="1.0" stroke-width="1.7922099826020486"><path d="M 326.3350,271.1637 c 0.0000,-2.7308 -2.2138,-4.9446 -4.9446 -4.9446c -2.7308,-0.0000 -4.9446,2.2138 -4.9446 4.9446c -0.0000,2.7308 2.2138,4.9446 4.9446 4.9446c 2.7308,0.0000 4.9446,-2.2138 4.9446 -4.9446Z"/></g><g stroke-linejoin="miter" fill-opacity="0.0" fill="rgb(0,0,0)" stroke="rgb(0,0,0)" stroke-linecap="butt" stroke-miterlimit="10.0" stroke-opacity="1.0" stroke-width="1.7922099826020486"><path d="M 332.9981,253.0624 c 0.0000,-2.7308 -2.2138,-4.9446 -4.9446 -4.9446c -2.7308,-0.0000 -4.9446,2.2138 -4.9446 4.9446c -0.0000,2.7308 2.2138,4.9446 4.9446 4.9446c 2.7308,0.0000 4.9446,-2.2138 4.9446 -4.9446Z"/></g><g stroke-linejoin="miter" fill-opacity="0.0" fill="rgb(0,0,0)" stroke="rgb(0,0,0)" stroke-linecap="butt" stroke-miterlimit="10.0" stroke-opacity="1.0" stroke-width="1.7922099826020486"><path d="M 337.2960,234.4159 c 0.0000,-2.7308 -2.2138,-4.9446 -4.9446 -4.9446c -2.7308,-0.0000 -4.9446,2.2138 -4.9446 4.9446c -0.0000,2.7308 2.2138,4.9446 4.9446 4.9446c 2.7308,0.0000 4.9446,-2.2138 4.9446 -4.9446Z"/></g><g stroke-linejoin="miter" fill-opacity="0.0" fill="rgb(0,0,0)" stroke="rgb(0,0,0)" stroke-linecap="butt" stroke-miterlimit="10.0" stroke-opacity="1.0" stroke-width="1.7922099826020486"><path d="M 339.1978,215.5291 c 0.0000,-2.7308 -2.2138,-4.9446 -4.9446 -4.9446c -2.7308,-0.0000 -4.9446,2.2138 -4.9446 4.9446c -0.0000,2.7308 2.2138,4.9446 4.9446 4.9446c 2.7308,0.0000 4.9446,-2.2138 4.9446 -4.9446Z"/></g><g stroke-linejoin="miter" fill-opacity="0.0" fill="rgb(0,0,0)" stroke="rgb(0,0,0)" stroke-linecap="butt" stroke-miterlimit="10.0" stroke-opacity="1.0" stroke-width="1.7922099826020486"><path d="M 338.7115,196.7062 c 0.0000,-2.7308 -2.2138,-4.9446 -4.9446 -4.9446c -2.7308,-0.0000 -4.9446,2.2138 -4.9446 4.9446c -0.0000,2.7308 2.2138,4.9446 4.9446 4.9446c 2.7308,0.0000 4.9446,-2.2138 4.9446 -4.9446Z"/></g><g stroke-linejoin="miter" fill-opacity="0.0" fill="rgb(0,0,0)" stroke="rgb(0,0,0)" stroke-linecap="butt" stroke-miterlimit="10.0" stroke-opacity="1.0" stroke-width="1.7922099826020486"><path d="M 335.8832,178.2457 c 0.0000,-2.7308 -2.2138,-4.9446 -4.9446 -4.9446c -2.7308,-0.0000 -4.9446,2.2138 -4.9446 4.9446c -0.0000,2.7308 2.2138,4.9446 4.9446 4.9446c 2.7308,0.0000 4.9446,-2.2138 4.9446 -4.9446Z"/></g><g stroke-linejoin="miter" fill-opacity="0.0" fill="rgb(0,0,0)" stroke="rgb(0,0,0)" stroke-linecap="butt" stroke-miterlimit="10.0" stroke-opacity="1.0" stroke-width="1.7922099826020486"><path d="M 330.7959,160.4353 c 0.0000,-2.7308 -2.2138,-4.9446 -4.9446 -4.9446c -2.7308,-0.0000 -4.9446,2.2138 -4.9446 4.9446c -0.0000,2.7308 2.2138,4.9446 4.9446 4.9446c 2.7308,0.0000 4.9446,-2.2138 4.9446 -4.9446Z"/></g><g stroke-linejoin="miter" fill-opacity="0.0" fill="rgb(0,0,0)" stroke="rgb(0,0,0)" stroke-linecap="butt" stroke-miterlimit="10.0" stroke-opacity="1.0" stroke-width="1.7922099826020486"><path d="M 323.5673,143.5477 c 0.0000,-2.7308 -2.2138,-4.9446 -4.9446 -4.9446c -2.7308,-0.0000 -4.9446,2.2138 -4.9446 4.9446c -0.0000,2.7308 2.2138,4.9446 4.9446 4.9446c 2.7308,0.0000 4.9446,-2.2138 4.9446 -4.9446Z"/></g><g stroke-linejoin="miter" fill-opacity="0.0" fill="rgb(0,0,0)" stroke="rgb(0,0,0)" stroke-linecap="butt" stroke-miterlimit="10.0" stroke-opacity="1.0" stroke-width="1.7922099826020486"><path d="M 314.3478,127.8366 c 0.0000,-2.7308 -2.2138,-4.9446 -4.9446 -4.9446c -2.7308,-0.0000 -4.9446,2.2138 -4.9446 4.9446c -0.0000,2.7308 2.2138,4.9446 4.9446 4.9446c 2.7308,0.0000 4.9446,-2.2138 4.9446 -4.9446Z"/></g><g stroke-linejoin="miter" fill-opacity="0.0" fill="rgb(0,0,0)" stroke="rgb(0,0,0)" stroke-linecap="butt" stroke-miterlimit="10.0" stroke-opacity="1.0" stroke-width="1.7922099826020486"><path d="M 303.3172,113.5325 c 0.0000,-2.7308 -2.2138,-4.9446 -4.9446 -4.9446c -2.7308,-0.0000 -4.9446,2.2138 -4.9446 4.9446c -0.0000,2.7308 2.2138,4.9446 4.9446 4.9446c 2.7308,0.0000 4.9446,-2.2138 4.9446 -4.9446Z"/></g><g stroke-linejoin="miter" fill-opacity="0.0" fill="rgb(0,0,0)" stroke="rgb(0,0,0)" stroke-linecap="butt" stroke-miterlimit="10.0" stroke-opacity="1.0" stroke-width="1.7922099826020486"><path d="M 290.6814,100.8397 c 0.0000,-2.7308 -2.2138,-4.9446 -4.9446 -4.9446c -2.7308,-0.0000 -4.9446,2.2138 -4.9446 4.9446c -0.0000,2.7308 2.2138,4.9446 4.9446 4.9446c 2.7308,0.0000 4.9446,-2.2138 4.9446 -4.9446Z"/></g><g stroke-linejoin="miter" fill-opacity="0.0" fill="rgb(0,0,0)" stroke="rgb(0,0,0)" stroke-linecap="butt" stroke-miterlimit="10.0" stroke-opacity="1.0" stroke-width="1.7922099826020486"><path d="M 276.6688,89.9329 c 0.0000,-2.7308 -2.2138,-4.9446 -4.9446 -4.9446c -2.7308,-0.0000 -4.9446,2.2138 -4.9446 4.9446c -0.0000,2.7308 2.2138,4.9446 4.9446 4.9446c 2.7308,0.0000 4.9446,-2.2138 4.9446 -4.9446Z"/></g><g stroke-linejoin="miter" fill-opacity="0.0" fill="rgb(0,0,0)" stroke="rgb(0,0,0)" stroke-linecap="butt" stroke-miterlimit="10.0" stroke-opacity="1.0" stroke-width="1.7922099826020486"><path d="M 261.5260,80.9557 c 0.0000,-2.7308 -2.2138,-4.9446 -4.9446 -4.9446c -2.7308,-0.0000 -4.9446,2.2138 -4.9446 4.9446c -0.0000,2.7308 2.2138,4.9446 4.9446 4.9446c 2.7308,0.0000 4.9446,-2.2138 4.9446 -4.9446Z"/></g><g stroke-linejoin="miter" fill-opacity="0.0" fill="rgb(0,0,0)" stroke="rgb(0,0,0)" stroke-linecap="butt" stroke-miterlimit="10.0" stroke-opacity="1.0" stroke-width="1.7922099826020486"><path d="M 245.5137,74.0179 c 0.0000,-2.7308 -2.2138,-4.9446 -4.9446 -4.9446c -2.7308,-0.0000 -4.9446,2.2138 -4.9446 4.9446c -0.0000,2.7308 2.2138,4.9446 4.9446 4.9446c 2.7308,0.0000 4.9446,-2.2138 4.9446 -4.9446Z"/></g><g stroke-linejoin="miter" fill-opacity="0.0" fill="rgb(0,0,0)" stroke="rgb(0,0,0)" stroke-linecap="butt" stroke-miterlimit="10.0" stroke-opacity="1.0" stroke-width="1.7922099826020486"><path d="M 228.9022,69.1947 c 0.0000,-2.7308 -2.2138,-4.9446 -4.9446 -4.9446c -2.7308,-0.0000 -4.9446,2.2138 -4.9446 4.9446c -0.0000,2.7308 2.2138,4.9446 4.9446 4.9446c 2.7308,0.0000 4.9446,-2.2138 4.9446 -4.9446Z"/></g><g stroke-linejoin="miter" fill-opacity="0.0" fill="rgb(0,0,0)" stroke="rgb(0,0,0)" stroke-linecap="butt" stroke-miterlimit="10.0" stroke-opacity="1.0" stroke-width="1.7922099826020486"><path d="M 211.9667,66.5262 c 0.0000,-2.7308 -2.2138,-4.9446 -4.9446 -4.9446c -2.7308,-0.0000 -4.9446,2.2138 -4.9446 4.9446c -0.0000,2.7308 2.2138,4.9446 4.9446 4.9446c 2.7308,0.0000 4.9446,-2.2138 4.9446 -4.9446Z"/></g><g stroke-linejoin="miter" fill-opacity="0.0" fill="rgb(0,0,0)" stroke="rgb(0,0,0)" stroke-linecap="butt" stroke-miterlimit="10.0" stroke-opacity="1.0" stroke-width="1.7922099826020486"><path d="M 194.9830,66.0169 c 0.0000,-2.7308 -2.2138,-4.9446 -4.9446 -4.9446c -2.7308,-0.0000 -4.9446,2.2138 -4.9446 4.9446c -0.0000,2.7308 2.2138,4.9446 4.9446 4.9446c 2.7308,0.0000 4.9446,-2.2138 4.9446 -4.9446Z"/></g><g stroke-linejoin="miter" fill-opacity="0.0" fill="rgb(0,0,0)" stroke="rgb(0,0,0)" stroke-linecap="butt" stroke-miterlimit="10.0" stroke-opacity="1.0" stroke-width="1.7922099826020486"><path d="M 178.2229,67.6366 c 0.0000,-2.7308 -2.2138,-4.9446 -4.9446 -4.9446c -2.7308,-0.0000 -4.9446,2.2138 -4.9446 4.9446c -0.0000,2.7308 2.2138,4.9446 4.9446 4.9446c 2.7308,0.0000 4.9446,-2.2138 4.9446 -4.9446Z"/></g><g stroke-linejoin="miter" fill-opacity="0.0" fill="rgb(0,0,0)" stroke="rgb(0,0,0)" stroke-linecap="butt" stroke-miterlimit="10.0" stroke-opacity="1.0" stroke-width="1.7922099826020486"><path d="M 161.9497,71.3213 c 0.0000,-2.7308 -2.2138,-4.9446 -4.9446 -4.9446c -2.7308,-0.0000 -4.9446,2.2138 -4.9446 4.9446c -0.0000,2.7308 2.2138,4.9446 4.9446 4.9446c 2.7308,0.0000 4.9446,-2.2138 4.9446 -4.9446Z"/></g><g stroke-linejoin="miter" fill-opacity="0.0" fill="rgb(0,0,0)" stroke="rgb(0,0,0)" stroke-linecap="butt" stroke-miterlimit="10.0" stroke-opacity="1.0" stroke-width="1.7922099826020486"><path d="M 146.4144,76.9748 c 0.0000,-2.7308 -2.2138,-4.9446 -4.9446 -4.9446c -2.7308,-0.0000 -4.9446,2.2138 -4.9446 4.9446c -0.0000,2.7308 2.2138,4.9446 4.9446 4.9446c 2.7308,0.0000 4.9446,-2.2138 4.9446 -4.9446Z"/></g><g stroke-linejoin="miter" fill-opacity="0.0" fill="rgb(0,0,0)" stroke="rgb(0,0,0)" stroke-linecap="butt" stroke-miterlimit="10.0" stroke-opacity="1.0" stroke-width="1.7922099826020486"><path d="M 131.8515,84.4708 c 0.0000,-2.7308 -2.2138,-4.9446 -4.9446 -4.9446c -2.7308,-0.0000 -4.9446,2.2138 -4.9446 4.9446c -0.0000,2.7308 2.2138,4.9446 4.9446 4.9446c 2.7308,0.0000 4.9446,-2.2138 4.9446 -4.9446Z"/></g><g stroke-linejoin="miter" fill-opacity="0.0" fill="rgb(0,0,0)" stroke="rgb(0,0,0)" stroke-linecap="butt" stroke-miterlimit="10.0" stroke-opacity="1.0" stroke-width="1.7922099826020486"><path d="M 118.4757,93.6559 c 0.0000,-2.7308 -2.2138,-4.9446 -4.9446 -4.9446c -2.7308,-0.0000 -4.9446,2.2138 -4.9446 4.9446c -0.0000,2.7308 2.2138,4.9446 4.9446 4.9446c 2.7308,0.0000 4.9446,-2.2138 4.9446 -4.9446Z"/></g><g stroke-linejoin="miter" fill-opacity="0.0" fill="rgb(0,0,0)" stroke="rgb(0,0,0)" stroke-linecap="butt" stroke-miterlimit="10.0" stroke-opacity="1.0" stroke-width="1.7922099826020486"><path d="M 106.4785,104.3518 c 0.0000,-2.7308 -2.2138,-4.9446 -4.9446 -4.9446c -2.7308,-0.0000 -4.9446,2.2138 -4.9446 4.9446c -0.0000,2.7308 2.2138,4.9446 4.9446 4.9446c 2.7308,0.0000 4.9446,-2.2138 4.9446 -4.9446Z"/></g><g stroke-linejoin="miter" fill-opacity="0.0" fill="rgb(0,0,0)" stroke="rgb(0,0,0)" stroke-linecap="butt" stroke-miterlimit="10.0" stroke-opacity="1.0" stroke-width="1.7922099826020486"><path d="M 96.0258,116.3593 c 0.0000,-2.7308 -2.2138,-4.9446 -4.9446 -4.9446c -2.7308,-0.0000 -4.9446,2.2138 -4.9446 4.9446c -0.0000,2.7308 2.2138,4.9446 4.9446 4.9446c 2.7308,0.0000 4.9446,-2.2138 4.9446 -4.9446Z"/></g><g stroke-linejoin="miter" fill-opacity="0.0" fill="rgb(0,0,0)" stroke="rgb(0,0,0)" stroke-linecap="butt" stroke-miterlimit="10.0" stroke-opacity="1.0" stroke-width="1.7922099826020486"><path d="M 87.2555,129.4616 c 0.0000,-2.7308 -2.2138,-4.9446 -4.9446 -4.9446c -2.7308,-0.0000 -4.9446,2.2138 -4.9446 4.9446c -0.0000,2.7308 2.2138,4.9446 4.9446 4.9446c 2.7308,0.0000 4.9446,-2.2138 4.9446 -4.9446Z"/></g><g stroke-linejoin="miter" fill-opacity="0.0" fill="rgb(0,0,0)" stroke="rgb(0,0,0)" stroke-linecap="butt" stroke-miterlimit="10.0" stroke-opacity="1.0" stroke-width="1.7922099826020486"><path d="M 80.2757,143.4282 c 0.0000,-2.7308 -2.2138,-4.9446 -4.9446 -4.9446c -2.7308,-0.0000 -4.9446,2.2138 -4.9446 4.9446c -0.0000,2.7308 2.2138,4.9446 4.9446 4.9446c 2.7308,0.0000 4.9446,-2.2138 4.9446 -4.9446Z"/></g><g stroke-linejoin="miter" fill-opacity="0.0" fill="rgb(0,0,0)" stroke="rgb(0,0,0)" stroke-linecap="butt" stroke-miterlimit="10.0" stroke-opacity="1.0" stroke-width="1.7922099826020486"><path d="M 75.1634,158.0192 c 0.0000,-2.7308 -2.2138,-4.9446 -4.9446 -4.9446c -2.7308,-0.0000 -4.9446,2.2138 -4.9446 4.9446c -0.0000,2.7308 2.2138,4.9446 4.9446 4.9446c 2.7308,0.0000 4.9446,-2.2138 4.9446 -4.9446Z"/></g><g stroke-linejoin="miter" fill-opacity="0.0" fill="rgb(0,0,0)" stroke="rgb(0,0,0)" stroke-linecap="butt" stroke-miterlimit="10.0" stroke-opacity="1.0" stroke-width="1.7922099826020486"><path d="M 71.9641,172.9887 c 0.0000,-2.7308 -2.2138,-4.9446 -4.9446 -4.9446c -2.7308,-0.0000 -4.9446,2.2138 -4.9446 4.9446c -0.0000,2.7308 2.2138,4.9446 4.9446 4.9446c 2.7308,0.0000 4.9446,-2.2138 4.9446 -4.9446Z"/></g><g stroke-linejoin="miter" fill-opacity="0.0" fill="rgb(0,0,0)" stroke="rgb(0,0,0)" stroke-linecap="butt" stroke-miterlimit="10.0" stroke-opacity="1.0" stroke-width="1.7922099826020486"><path d="M 70.6914,188.0897 c 0.0000,-2.7308 -2.2138,-4.9446 -4.9446 -4.9446c -2.7308,-0.0000 -4.9446,2.2138 -4.9446 4.9446c -0.0000,2.7308 2.2138,4.9446 4.9446 4.9446c 2.7308,0.0000 4.9446,-2.2138 4.9446 -4.9446Z"/></g><g stroke-linejoin="miter" fill-opacity="0.0" fill="rgb(0,0,0)" stroke="rgb(0,0,0)" stroke-linecap="butt" stroke-miterlimit="10.0" stroke-opacity="1.0" stroke-width="1.7922099826020486"><path d="M 71.3273,203.0778 c 0.0000,-2.7308 -2.2138,-4.9446 -4.9446 -4.9446c -2.7308,-0.0000 -4.9446,2.2138 -4.9446 4.9446c -0.0000,2.7308 2.2138,4.9446 4.9446 4.9446c 2.7308,0.0000 4.9446,-2.2138 4.9446 -4.9446Z"/></g><g stroke-linejoin="miter" fill-opacity="0.0" fill="rgb(0,0,0)" stroke="rgb(0,0,0)" stroke-linecap="butt" stroke-miterlimit="10.0" stroke-opacity="1.0" stroke-width="1.7922099826020486"><path d="M 73.8235,217.7150 c 0.0000,-2.7308 -2.2138,-4.9446 -4.9446 -4.9446c -2.7308,-0.0000 -4.9446,2.2138 -4.9446 4.9446c -0.0000,2.7308 2.2138,4.9446 4.9446 4.9446c 2.7308,0.0000 4.9446,-2.2138 4.9446 -4.9446Z"/></g><g stroke-linejoin="miter" fill-opacity="0.0" fill="rgb(0,0,0)" stroke="rgb(0,0,0)" stroke-linecap="butt" stroke-miterlimit="10.0" stroke-opacity="1.0" stroke-width="1.7922099826020486"><path d="M 78.1022,231.7739 c 0.0000,-2.7308 -2.2138,-4.9446 -4.9446 -4.9446c -2.7308,-0.0000 -4.9446,2.2138 -4.9446 4.9446c -0.0000,2.7308 2.2138,4.9446 4.9446 4.9446c 2.7308,0.0000 4.9446,-2.2138 4.9446 -4.9446Z"/></g><g stroke-linejoin="miter" fill-opacity="0.0" fill="rgb(0,0,0)" stroke="rgb(0,0,0)" stroke-linecap="butt" stroke-miterlimit="10.0" stroke-opacity="1.0" stroke-width="1.7922099826020486"><path d="M 84.0582,245.0409 c 0.0000,-2.7308 -2.2138,-4.9446 -4.9446 -4.9446c -2.7308,-0.0000 -4.9446,2.2138 -4.9446 4.9446c -0.0000,2.7308 2.2138,4.9446 4.9446 4.9446c 2.7308,0.0000 4.9446,-2.2138 4.9446 -4.9446Z"/></g><g stroke-linejoin="miter" fill-opacity="0.0" fill="rgb(0,0,0)" stroke="rgb(0,0,0)" stroke-linecap="butt" stroke-miterlimit="10.0" stroke-opacity="1.0" stroke-width="1.7922099826020486"><path d="M 91.5615,257.3195 c 0.0000,-2.7308 -2.2138,-4.9446 -4.9446 -4.9446c -2.7308,-0.0000 -4.9446,2.2138 -4.9446 4.9446c -0.0000,2.7308 2.2138,4.9446 4.9446 4.9446c 2.7308,0.0000 4.9446,-2.2138 4.9446 -4.9446Z"/></g><g stroke-linejoin="miter" fill-opacity="0.0" fill="rgb(0,0,0)" stroke="rgb(0,0,0)" stroke-linecap="butt" stroke-miterlimit="10.0" stroke-opacity="1.0" stroke-width="1.7922099826020486"><path d="M 100.4592,268.4332 c 0.0000,-2.7308 -2.2138,-4.9446 -4.9446 -4.9446c -2.7308,-0.0000 -4.9446,2.2138 -4.9446 4.9446c -0.0000,2.7308 2.2138,4.9446 4.9446 4.9446c 2.7308,0.0000 4.9446,-2.2138 4.9446 -4.9446Z"/></g><g stroke-linejoin="miter" fill-opacity="0.0" fill="rgb(0,0,0)" stroke="rgb(0,0,0)" stroke-linecap="butt" stroke-miterlimit="10.0" stroke-opacity="1.0" stroke-width="1.7922099826020486"><path d="M 110.5790,278.2282 c 0.0000,-2.7308 -2.2138,-4.9446 -4.9446 -4.9446c -2.7308,-0.0000 -4.9446,2.2138 -4.9446 4.9446c -0.0000,2.7308 2.2138,4.9446 4.9446 4.9446c 2.7308,0.0000 4.9446,-2.2138 4.9446 -4.9446Z"/></g><g stroke-linejoin="miter" fill-opacity="0.0" fill="rgb(0,0,0)" stroke="rgb(0,0,0)" stroke-linecap="butt" stroke-miterlimit="10.0" stroke-opacity="1.0" stroke-width="1.7922099826020486"><path d="M 121.7322,286.5753 c 0.0000,-2.7308 -2.2138,-4.9446 -4.9446 -4.9446c -2.7308,-0.0000 -4.9446,2.2138 -4.9446 4.9446c -0.0000,2.7308 2.2138,4.9446 4.9446 4.9446c 2.7308,0.0000 4.9446,-2.2138 4.9446 -4.9446Z"/></g><g stroke-linejoin="miter" fill-opacity="0.0" fill="rgb(0,0,0)" stroke="rgb(0,0,0)" stroke-linecap="butt" stroke-miterlimit="10.0" stroke-opacity="1.0" stroke-width="1.7922099826020486"><path d="M 133.7174,293.3714 c 0.0000,-2.7308 -2.2138,-4.9446 -4.9446 -4.9446c -2.7308,-0.0000 -4.9446,2.2138 -4.9446 4.9446c -0.0000,2.7308 2.2138,4.9446 4.9446 4.9446c 2.7308,0.0000 4.9446,-2.2138 4.9446 -4.9446Z"/></g><g stroke-linejoin="miter" fill-opacity="0.0" fill="rgb(0,0,0)" stroke="rgb(0,0,0)" stroke-linecap="butt" stroke-miterlimit="10.0" stroke-opacity="1.0" stroke-width="1.7922099826020486"><path d="M 146.3236,298.5410 c 0.0000,-2.7308 -2.2138,-4.9446 -4.9446 -4.9446c -2.7308,-0.0000 -4.9446,2.2138 -4.9446 4.9446c -0.0000,2.7308 2.2138,4.9446 4.9446 4.9446c 2.7308,0.0000 4.9446,-2.2138 4.9446 -4.9446Z"/></g><g stroke-linejoin="miter" fill-opacity="0.0" fill="rgb(0,0,0)" stroke="rgb(0,0,0)" stroke-linecap="butt" stroke-miterlimit="10.0" stroke-opacity="1.0" stroke-width="1.7922099826020486"><path d="M 159.3343,302.0368 c 0.0000,-2.7308 -2.2138,-4.9446 -4.9446 -4.9446c -2.7308,-0.0000 -4.9446,2.2138 -4.9446 4.9446c -0.0000,2.7308 2.2138,4.9446 4.9446 4.9446c 2.7308,0.0000 4.9446,-2.2138 4.9446 -4.9446Z"/></g><g stroke-linejoin="miter" fill-opacity="0.0" fill="rgb(0,0,0)" stroke="rgb(0,0,0)" stroke-linecap="butt" stroke-miterlimit="10.0" stroke-opacity="1.0" stroke-width="1.7922099826020486"><path d="M 172.5310,303.8397 c 0.0000,-2.7308 -2.2138,-4.9446 -4.9446 -4.9446c -2.7308,-0.0000 -4.9446,2.2138 -4.9446 4.9446c -0.0000,2.7308 2.2138,4.9446 4.9446 4.9446c 2.7308,0.0000 4.9446,-2.2138 4.9446 -4.9446Z"/></g><g stroke-linejoin="miter" fill-opacity="0.0" fill="rgb(0,0,0)" stroke="rgb(0,0,0)" stroke-linecap="butt" stroke-miterlimit="10.0" stroke-opacity="1.0" stroke-width="1.7922099826020486"><path d="M 185.6969,303.9589 c 0.0000,-2.7308 -2.2138,-4.9446 -4.9446 -4.9446c -2.7308,-0.0000 -4.9446,2.2138 -4.9446 4.9446c -0.0000,2.7308 2.2138,4.9446 4.9446 4.9446c 2.7308,0.0000 4.9446,-2.2138 4.9446 -4.9446Z"/></g><g stroke-linejoin="miter" fill-opacity="0.0" fill="rgb(0,0,0)" stroke="rgb(0,0,0)" stroke-linecap="butt" stroke-miterlimit="10.0" stroke-opacity="1.0" stroke-width="1.7922099826020486"><path d="M 198.6204,302.4306 c 0.0000,-2.7308 -2.2138,-4.9446 -4.9446 -4.9446c -2.7308,-0.0000 -4.9446,2.2138 -4.9446 4.9446c -0.0000,2.7308 2.2138,4.9446 4.9446 4.9446c 2.7308,0.0000 4.9446,-2.2138 4.9446 -4.9446Z"/></g><g stroke-linejoin="miter" fill-opacity="0.0" fill="rgb(0,0,0)" stroke="rgb(0,0,0)" stroke-linecap="butt" stroke-miterlimit="10.0" stroke-opacity="1.0" stroke-width="1.7922099826020486"><path d="M 211.0987,299.3175 c 0.0000,-2.7308 -2.2138,-4.9446 -4.9446 -4.9446c -2.7308,-0.0000 -4.9446,2.2138 -4.9446 4.9446c -0.0000,2.7308 2.2138,4.9446 4.9446 4.9446c 2.7308,0.0000 4.9446,-2.2138 4.9446 -4.9446Z"/></g><g stroke-linejoin="miter" fill-opacity="0.0" fill="rgb(0,0,0)" stroke="rgb(0,0,0)" stroke-linecap="butt" stroke-miterlimit="10.0" stroke-opacity="1.0" stroke-width="1.7922099826020486"><path d="M 222.9407,294.7067 c 0.0000,-2.7308 -2.2138,-4.9446 -4.9446 -4.9446c -2.7308,-0.0000 -4.9446,2.2138 -4.9446 4.9446c -0.0000,2.7308 2.2138,4.9446 4.9446 4.9446c 2.7308,0.0000 4.9446,-2.2138 4.9446 -4.9446Z"/></g><g stroke-linejoin="miter" fill-opacity="0.0" fill="rgb(0,0,0)" stroke="rgb(0,0,0)" stroke-linecap="butt" stroke-miterlimit="10.0" stroke-opacity="1.0" stroke-width="1.7922099826020486"><path d="M 233.9701,288.7080 c 0.0000,-2.7308 -2.2138,-4.9446 -4.9446 -4.9446c -2.7308,-0.0000 -4.9446,2.2138 -4.9446 4.9446c -0.0000,2.7308 2.2138,4.9446 4.9446 4.9446c 2.7308,0.0000 4.9446,-2.2138 4.9446 -4.9446Z"/></g></svg>